<svg width="24" height="24" viewBox="0 0 24 24" fill="none" xmlns="http://www.w3.org/2000/svg">
<g clip-path="url(#clip0_328_4277)">
<path d="M1.71988 3.29012L4.88988 0.120117L11.1499 6.39012L7.73988 9.80012C9.10988 12.8601 11.2299 14.9901 14.1899 16.2701L17.5999 12.8601L23.8799 19.1101L20.7099 22.2801C19.5999 23.3901 18.1099 24.0001 16.4999 24.0001C9.24988 24.0001 -0.000118256 14.7501 -0.000118256 7.50012C-0.000118256 5.89012 0.60988 4.40012 1.71988 3.29012ZM16.4999 22.0001C17.5699 22.0001 18.5699 21.6001 19.2899 20.8701L21.0499 19.1101L17.6099 15.6701L14.6799 18.6001L14.0699 18.3701C10.1099 16.8601 7.25988 14.0201 5.61988 9.93012L5.36988 9.32012L8.29988 6.38012L4.85988 2.94012L3.09988 4.70012C2.36988 5.43012 1.96988 6.42012 1.96988 7.49012C1.96988 13.7201 10.2399 21.9901 16.4699 21.9901L16.4999 22.0001Z" fill="#FF4900"/>
</g>
<defs>
<clipPath id="clip0_328_4277">
<rect width="24" height="24" fill="white" transform="matrix(-1 0 0 1 24 0)"/>
</clipPath>
</defs>
</svg>
