<svg width="36" height="36" viewBox="0 0 36 36" fill="none" xmlns="http://www.w3.org/2000/svg">
<path fill-rule="evenodd" clip-rule="evenodd" d="M6.22852 7.38965C6.22852 8.48648 7.12126 9.37882 8.21748 9.37882C8.26731 9.37882 8.31776 9.37695 8.368 9.37321C8.47077 9.36553 8.57146 9.40124 8.64662 9.47121C8.7224 9.54117 8.76496 9.63938 8.76496 9.74235V10.7865H16.8599V9.74215C16.8599 9.63938 16.9029 9.54117 16.9787 9.47121C17.0158 9.4365 17.0598 9.40989 17.1078 9.39305C17.1558 9.37622 17.2068 9.36954 17.2575 9.37342C17.3077 9.37695 17.3584 9.37882 17.4078 9.37882C18.5044 9.37882 19.397 8.48669 19.397 7.38986C19.3972 6.29281 18.5042 5.40069 17.4078 5.40069C17.3615 5.40069 17.3133 5.40235 17.2652 5.40567C17.2578 5.40624 17.2504 5.40659 17.243 5.40671C17.1279 5.40982 15.2687 5.49017 14.9143 7.2601C14.9049 7.30778 14.8861 7.35313 14.8591 7.39355C14.8321 7.43396 14.7974 7.46865 14.7569 7.49561C14.7165 7.52258 14.6711 7.54129 14.6234 7.55068C14.5757 7.56008 14.5266 7.55996 14.479 7.55034C14.3828 7.53101 14.2983 7.47429 14.2439 7.39265C14.1896 7.31101 14.1699 7.21114 14.1891 7.11497C14.5276 5.42166 15.9726 4.815 16.911 4.69147C16.9133 4.65202 16.9145 4.61258 16.9145 4.57313C16.9147 3.47588 16.0224 2.58375 14.9253 2.58375C14.5549 2.58253 14.1916 2.6853 13.8766 2.88038C13.5617 3.07546 13.3079 3.35501 13.144 3.68723C13.1132 3.74874 13.0659 3.80047 13.0074 3.83665C12.9489 3.87284 12.8814 3.89205 12.8126 3.89215C12.7439 3.89203 12.6764 3.8728 12.6179 3.83662C12.5594 3.80044 12.5121 3.74872 12.4813 3.68723C12.3175 3.35501 12.0637 3.07545 11.7488 2.88037C11.4339 2.68529 11.0706 2.58252 10.7001 2.58375C9.60311 2.58375 8.71098 3.47609 8.71098 4.57292C8.71098 4.61237 8.71202 4.65202 8.7143 4.69147C9.65293 4.815 11.0977 5.42166 11.4361 7.11497C11.447 7.16866 11.4458 7.2241 11.4326 7.27726C11.4194 7.33043 11.3946 7.37999 11.3598 7.42236C11.3251 7.46473 11.2814 7.49885 11.2319 7.52224C11.1823 7.54563 11.1282 7.55771 11.0734 7.55761C10.988 7.55745 10.9052 7.52774 10.8392 7.47351C10.7732 7.41928 10.7279 7.34388 10.7112 7.2601C10.561 6.50873 10.1271 5.96976 9.42186 5.65813C8.89534 5.42518 8.40101 5.40712 8.38129 5.40671H8.37983L8.37153 5.40629H8.37111L8.3626 5.40588H8.36094L8.35866 5.40567C8.31167 5.40237 8.26458 5.40071 8.21748 5.40069C7.12126 5.40069 6.22852 6.29302 6.22852 7.38965ZM8.69167 11.5264C7.98349 14.8709 8.68005 17.6216 10.5781 18.9202C10.6009 18.936 10.6242 18.9514 10.6474 18.9665L10.6619 18.9761C11.9793 19.83 13.6458 19.8302 14.9625 18.9765L14.9789 18.9661C15.0017 18.9512 15.0246 18.9358 15.0474 18.9204C16.9457 17.6216 17.642 14.8709 16.9336 11.5264H8.69167ZM31.6345 31.9228H17.3758L16.8603 33.3315C16.8578 33.3393 16.8549 33.3471 16.8518 33.3547L16.8292 33.4162H32.8684L32.3223 31.9228H31.6345ZM24.849 25.1373C21.4356 25.1373 18.6369 27.8168 18.4444 31.1829H31.2535C31.0611 27.8168 28.262 25.1373 24.849 25.1373ZM24.1665 22.9038V24.4297C24.6206 24.3864 25.0778 24.3864 25.5318 24.4297V22.9038H24.1665Z" fill="black"/>
<path fill-rule="evenodd" clip-rule="evenodd" d="M15.3324 21.4841L12.5444 24.4931L12.5333 24.5052L11.1755 25.9701V32.8463H16.2497L16.7693 31.4258C16.7954 31.3546 16.8427 31.2931 16.9048 31.2497C16.9669 31.2063 17.0409 31.1829 17.1167 31.1829H17.7034C17.8498 28.3226 19.6832 25.9003 22.2263 24.8951C21.6817 22.9009 19.8732 21.4841 17.8136 21.4841H15.3324ZM13.2218 29.5818C13.5439 29.5822 13.8526 29.7103 14.0803 29.9381C14.308 30.1659 14.4361 30.4747 14.4364 30.7968C14.4361 31.1188 14.3081 31.4277 14.0804 31.6555C13.8527 31.8833 13.5439 32.0114 13.2218 32.0117C12.8997 32.0113 12.5908 31.8832 12.363 31.6554C12.1352 31.4277 12.0071 31.1189 12.0066 30.7968C12.0071 30.4746 12.1352 30.1658 12.363 29.938C12.5908 29.7103 12.8997 29.5822 13.2218 29.5818ZM13.2218 26.2543C13.5439 26.2546 13.8527 26.3828 14.0804 26.6106C14.3081 26.8384 14.4361 27.1472 14.4364 27.4693C14.4361 27.7914 14.3081 28.1002 14.0804 28.328C13.8527 28.5558 13.5439 28.6839 13.2218 28.6843C12.8997 28.6839 12.5908 28.5557 12.363 28.328C12.1352 28.1002 12.0071 27.7914 12.0066 27.4693C12.0071 27.1472 12.1352 26.8383 12.363 26.6106C12.5908 26.3828 12.8997 26.2547 13.2218 26.2543Z" fill="black"/>
<path fill-rule="evenodd" clip-rule="evenodd" d="M7.8115 21.4841C5.14281 21.4841 3.69821 23.8638 3.23191 26.1036L3.13184 32.8461H5.48828L5.48849 27.0638C5.48849 26.9657 5.52745 26.8716 5.59682 26.8023C5.66618 26.7329 5.76026 26.6939 5.85835 26.6939C5.95645 26.6939 6.05053 26.7329 6.11989 26.8023C6.18925 26.8716 6.22822 26.9657 6.22822 27.0638L6.22843 32.8461H10.4354V25.8245C10.4354 25.7232 10.4763 25.6314 10.5423 25.5646L11.8102 24.1964L10.241 21.4841H7.8115ZM10.8248 21.0159L12.3369 23.6286L14.8005 20.9696V19.9116C14.1789 20.205 13.5003 20.3573 12.813 20.3578H12.8126C12.1341 20.3578 11.456 20.2089 10.8246 19.9116L10.8248 21.0159ZM13.2218 26.9942C13.0958 26.9943 12.975 27.0444 12.8858 27.1335C12.7967 27.2225 12.7465 27.3433 12.7463 27.4693C12.7465 27.5953 12.7966 27.7161 12.8858 27.8052C12.9749 27.8943 13.0957 27.9444 13.2218 27.9445C13.3478 27.9445 13.4686 27.8944 13.5577 27.8053C13.6468 27.7162 13.6969 27.5954 13.6969 27.4694C13.6969 27.3434 13.6468 27.2225 13.5577 27.1334C13.4686 27.0443 13.3478 26.9942 13.2218 26.9942ZM13.2218 30.3217C13.0958 30.3218 12.975 30.3719 12.8858 30.4609C12.7967 30.55 12.7465 30.6707 12.7463 30.7967C12.7465 30.9227 12.7967 31.0435 12.8858 31.1326C12.975 31.2217 13.0958 31.2718 13.2218 31.272C13.3461 31.2694 13.4644 31.2182 13.5514 31.1293C13.6384 31.0405 13.6871 30.9211 13.6871 30.7968C13.6871 30.6725 13.6384 30.5531 13.5514 30.4643C13.4644 30.3755 13.3461 30.3243 13.2218 30.3217Z" fill="black"/>
</svg>
