<svg width="36" height="36" viewBox="0 0 36 36" fill="none" xmlns="http://www.w3.org/2000/svg">
<path fill-rule="evenodd" clip-rule="evenodd" d="M16.5 3C14.5109 3 12.6032 3.79018 11.1967 5.1967C9.79018 6.60322 9 8.51088 9 10.5C9 12.4891 9.79018 14.3968 11.1967 15.8033C12.6032 17.2098 14.5109 18 16.5 18C18.4891 18 20.3968 17.2098 21.8033 15.8033C23.2098 14.3968 24 12.4891 24 10.5C24 8.51088 23.2098 6.60322 21.8033 5.1967C20.3968 3.79018 18.4891 3 16.5 3ZM16.5 19.5C12.9075 19.5 9.6375 20.541 7.233 22.008C6.033 22.74 5.007 23.604 4.266 24.543C3.537 25.464 3 26.5695 3 27.75C3 29.0175 3.6165 30.0165 4.5045 30.729C5.3445 31.404 6.453 31.851 7.6305 32.163C9.9975 32.7885 13.1565 33 16.5 33C16.846 33 17.1885 32.9975 17.5275 32.9925C17.7787 32.9891 18.025 32.9226 18.2439 32.7991C18.4627 32.6757 18.647 32.4993 18.7799 32.286C18.9128 32.0728 18.99 31.8296 19.0044 31.5788C19.0189 31.328 18.9701 31.0776 18.8625 30.8505C18.2937 29.6466 17.9991 28.3315 18 27C18 25.122 18.5745 23.382 19.5555 21.9405C19.7013 21.7263 19.7892 21.4779 19.8104 21.2197C19.8317 20.9614 19.7858 20.7021 19.677 20.4669C19.5682 20.2317 19.4004 20.0286 19.1898 19.8776C18.9793 19.7266 18.7332 19.6326 18.4755 19.605C17.8295 19.535 17.171 19.5 16.5 19.5ZM28.296 20.9955C28.1639 20.7689 27.9748 20.5809 27.7474 20.4502C27.52 20.3195 27.2623 20.2507 27 20.2507C26.7377 20.2507 26.48 20.3195 26.2526 20.4502C26.0252 20.5809 25.8361 20.7689 25.704 20.9955L24.339 23.3385L21.69 23.9115C21.4335 23.967 21.1961 24.0888 21.0014 24.2647C20.8067 24.4407 20.6616 24.6646 20.5805 24.9142C20.4994 25.1638 20.4853 25.4303 20.5394 25.687C20.5935 25.9438 20.7141 26.1819 20.889 26.3775L22.695 28.3995L22.422 31.0965C22.3955 31.3575 22.438 31.6209 22.5451 31.8603C22.6523 32.0998 22.8203 32.3069 23.0325 32.4612C23.2447 32.6154 23.4937 32.7113 23.7545 32.7392C24.0153 32.7672 24.2789 32.7262 24.519 32.6205L27 31.5255L29.481 32.6205C29.7211 32.7262 29.9847 32.7672 30.2455 32.7392C30.5063 32.7113 30.7553 32.6154 30.9675 32.4612C31.1797 32.3069 31.3477 32.0998 31.4549 31.8603C31.562 31.6209 31.6045 31.3575 31.578 31.0965L31.305 28.398L33.111 26.3775C33.2859 26.1819 33.4065 25.9438 33.4606 25.687C33.5148 25.4303 33.5006 25.1638 33.4195 24.9142C33.3384 24.6646 33.1933 24.4407 32.9986 24.2647C32.8039 24.0888 32.5665 23.967 32.31 23.9115L29.661 23.3385L28.296 20.9955Z" fill="black"/>
</svg>
