<svg width="36" height="36" viewBox="0 0 36 36" fill="none" xmlns="http://www.w3.org/2000/svg">
<path d="M31.842 27C33.309 27 34.5 28.191 34.5 29.6595V29.8125C34.5 32.1465 32.571 34.5 27.75 34.5C22.929 34.5 21 32.1555 21 29.8125V29.6595C21 28.1895 22.1895 27 23.6595 27H31.842ZM24.375 3C24.6734 3 24.9595 3.11853 25.1705 3.3295C25.3815 3.54048 25.5 3.82663 25.5 4.125V6H26.625C27.0682 6 27.5071 6.0873 27.9166 6.25691C28.326 6.42652 28.6981 6.67512 29.0115 6.98851C29.3249 7.30191 29.5735 7.67397 29.7431 8.08344C29.9127 8.49292 30 8.93179 30 9.375V17.004C28.8775 16.4696 27.6018 16.3509 26.4 16.6691C25.1982 16.9872 24.1483 17.7214 23.4371 18.7411C22.726 19.7609 22.3998 20.9999 22.5166 22.2375C22.6334 23.4752 23.1856 24.6313 24.075 25.5H23.6595C22.5563 25.5 21.4983 25.9382 20.7183 26.7183C19.9382 27.4983 19.5 28.5563 19.5 29.6595V29.8125C19.5 30.9225 19.821 32.0325 20.4975 33H9.375C8.47989 33 7.62145 32.6444 6.98851 32.0115C6.35558 31.3785 6 30.5201 6 29.625V9.375C6 8.47989 6.35558 7.62145 6.98851 6.98851C7.62145 6.35558 8.47989 6 9.375 6H10.5V4.125C10.5 3.82663 10.6185 3.54048 10.8295 3.3295C11.0405 3.11853 11.3266 3 11.625 3C11.9234 3 12.2095 3.11853 12.4205 3.3295C12.6315 3.54048 12.75 3.82663 12.75 4.125V6H16.875V4.125C16.875 3.82663 16.9935 3.54048 17.2045 3.3295C17.4155 3.11853 17.7016 3 18 3C18.2984 3 18.5845 3.11853 18.7955 3.3295C19.0065 3.54048 19.125 3.82663 19.125 4.125V6H23.25V4.125C23.25 3.82663 23.3685 3.54048 23.5795 3.3295C23.7905 3.11853 24.0766 3 24.375 3ZM12.375 24C12.0766 24 11.7905 24.1185 11.5795 24.3295C11.3685 24.5405 11.25 24.8266 11.25 25.125C11.25 25.4234 11.3685 25.7095 11.5795 25.9205C11.7905 26.1315 12.0766 26.25 12.375 26.25H16.875L16.9905 26.244C17.2673 26.2153 17.5236 26.085 17.71 25.8784C17.8963 25.6717 17.9995 25.4033 17.9995 25.125C17.9995 24.8467 17.8963 24.5783 17.71 24.3716C17.5236 24.165 17.2673 24.0347 16.9905 24.006L16.875 24H12.375ZM27.75 18C28.7446 18 29.6984 18.3951 30.4016 19.0984C31.1049 19.8016 31.5 20.7554 31.5 21.75C31.5 22.7446 31.1049 23.6984 30.4016 24.4016C29.6984 25.1049 28.7446 25.5 27.75 25.5C26.7554 25.5 25.8016 25.1049 25.0983 24.4016C24.3951 23.6984 24 22.7446 24 21.75C24 20.7554 24.3951 19.8016 25.0983 19.0984C25.8016 18.3951 26.7554 18 27.75 18ZM12.375 18C12.0766 18 11.7905 18.1185 11.5795 18.3295C11.3685 18.5405 11.25 18.8266 11.25 19.125C11.25 19.4234 11.3685 19.7095 11.5795 19.9205C11.7905 20.1315 12.0766 20.25 12.375 20.25H19.875C20.1734 20.25 20.4595 20.1315 20.6705 19.9205C20.8815 19.7095 21 19.4234 21 19.125C21 18.8266 20.8815 18.5405 20.6705 18.3295C20.4595 18.1185 20.1734 18 19.875 18H12.375ZM12.375 12C12.0766 12 11.7905 12.1185 11.5795 12.3295C11.3685 12.5405 11.25 12.8266 11.25 13.125C11.25 13.4234 11.3685 13.7095 11.5795 13.9205C11.7905 14.1315 12.0766 14.25 12.375 14.25H23.625C23.9234 14.25 24.2095 14.1315 24.4205 13.9205C24.6315 13.7095 24.75 13.4234 24.75 13.125C24.75 12.8266 24.6315 12.5405 24.4205 12.3295C24.2095 12.1185 23.9234 12 23.625 12H12.375Z" fill="black"/>
</svg>
