<svg width="28" height="28" viewBox="0 0 28 28" fill="none" xmlns="http://www.w3.org/2000/svg">
<path d="M7.63352 5.39362L9.28319 3.74395L6.15419 0.614954C5.75924 0.221265 5.22434 0.00019821 4.66669 0.00019821C4.10904 0.00019821 3.57413 0.221265 3.17919 0.614954L0.0501881 3.74512L1.69986 5.39479L3.50002 3.59462V10.5013H5.83336V3.59345L7.63352 5.39362ZM13.9977 17.5013C13.4354 17.5013 12.9069 17.282 12.5102 16.8853L9.38119 13.7563L11.0309 12.1066L12.8322 13.908L12.8345 7.00012H15.1679L15.1655 13.9068L16.9645 12.1078L18.6142 13.7575L15.4864 16.8865C15.0885 17.2843 14.56 17.5013 13.9977 17.5013ZM24.5 3.59345V10.5001H22.1667V3.59345L20.3665 5.39362L18.7169 3.74395L21.8459 0.613787C22.241 0.220383 22.7758 -0.000488281 23.3334 -0.000488281C23.8909 -0.000488281 24.4258 0.220383 24.8209 0.613787L27.9499 3.74395L26.3002 5.39362L24.5 3.59345ZM14 23.4H13.9954C5.46352 23.3976 0.204189 17.2808 -0.016311 17.0195L1.76636 15.5156C1.81302 15.5705 6.53569 21.0655 13.9965 21.0666C21.4212 21.0666 26.187 15.5681 26.2325 15.5145L28.0164 17.0206C27.7959 17.2808 22.5319 23.3976 14 23.4ZM28 28.0001H2.22513e-05V25.6668H28V28.0001Z" fill="#FF4900"/>
</svg>
