<svg width="36" height="36" viewBox="0 0 36 36" fill="none" xmlns="http://www.w3.org/2000/svg">
<path d="M28.6515 30.924L27.5794 11.0902L23.4681 9.75708L22.9461 11.0621C22.9641 11.1121 22.9759 11.1645 22.9792 11.2196L24.1042 32.0321C24.1084 32.1084 24.0969 32.1848 24.0705 32.2565C24.0441 32.3283 24.0034 32.3939 23.9508 32.4494C23.8982 32.5049 23.8349 32.5491 23.7646 32.5793C23.6944 32.6094 23.6188 32.625 23.5423 32.625H20.25V31.5H22.4685L21.3964 11.6662L17.2851 10.3331L15.7095 14.2711C15.668 14.3757 15.596 14.4653 15.5029 14.5284C15.4098 14.5915 15.2999 14.6251 15.1875 14.625C15.0609 14.625 14.9372 14.5822 14.8359 14.5018L12.9375 12.983V31.5H11.8125V12.983L9.91406 14.5018C9.84549 14.5567 9.765 14.5949 9.67904 14.6131C9.59308 14.6314 9.50404 14.6292 9.41906 14.6069C9.33408 14.5845 9.25552 14.5425 9.18968 14.4843C9.12384 14.4261 9.07255 14.3533 9.03993 14.2717L7.46043 10.3235L3.35306 11.6656L2.28149 31.5H4.49999V33.75H20.25V33.174H25.8705V32.049H24.7455C24.6698 32.0488 24.5949 32.0334 24.5253 32.0036C24.4557 31.9739 24.3927 31.9304 24.3403 31.8758C24.2879 31.8212 24.2469 31.7566 24.22 31.6858C24.1931 31.6151 24.1807 31.5396 24.1836 31.464L24.7461 17.4015L25.8699 17.4465L25.3311 30.924H28.6515ZM20.8125 29.25H21.9375V30.375H20.8125V29.25ZM3.93749 30.375H2.81249V29.25H3.93749V30.375ZM5.60193 31.5L5.06306 18.0225L6.18693 17.9775L6.72806 31.5H5.60193ZM10.6875 29.25H9.56249V28.125H10.6875V29.25ZM10.6875 23.625H9.56249V22.5H10.6875V23.625ZM10.6875 18H9.56249V16.875H10.6875V18ZM19.1481 31.5H18.0219L18.5631 17.9775L19.6869 18.0225L19.1481 31.5ZM26.9955 28.674H28.1205V29.799H26.9955V28.674Z" fill="black"/>
<path d="M30.2951 3.9375H32.1424C32.3938 4.905 33.2668 5.625 34.3125 5.625C34.4617 5.625 34.6048 5.56574 34.7102 5.46025C34.8157 5.35476 34.875 5.21168 34.875 5.0625V1.6875C34.875 1.53832 34.8157 1.39524 34.7102 1.28975C34.6048 1.18426 34.4617 1.125 34.3125 1.125C33.2668 1.125 32.3938 1.845 32.1424 2.8125H30.2951C30.0437 1.845 29.1707 1.125 28.125 1.125H26.4375V2.25H28.125C28.5396 2.25 28.8984 2.47781 29.0936 2.8125H21.2951C21.0437 1.845 20.1707 1.125 19.125 1.125H17.4375V2.25H19.125C19.5396 2.25 19.8984 2.47781 20.0936 2.8125H15.1076C14.8562 1.845 13.9832 1.125 12.9375 1.125H11.25V2.25H12.9375C13.3521 2.25 13.7109 2.47781 13.9061 2.8125H3.85763C3.60619 1.845 2.73319 1.125 1.6875 1.125C1.53832 1.125 1.39524 1.18426 1.28975 1.28975C1.18426 1.39524 1.125 1.53832 1.125 1.6875V5.0625C1.125 5.21168 1.18426 5.35476 1.28975 5.46025C1.39524 5.56574 1.53832 5.625 1.6875 5.625C2.73319 5.625 3.60619 4.905 3.85763 3.9375H13.9061C13.7109 4.27219 13.3521 4.5 12.9375 4.5H12.375C12.2258 4.5 12.0827 4.55926 11.9773 4.66475C11.8718 4.77024 11.8125 4.91332 11.8125 5.0625V8.01394L8.08031 8.84363L9.80325 13.1501L12.375 11.1566L14.9468 13.1496L16.6697 8.84306L12.9375 8.01394V5.625C13.9832 5.625 14.8562 4.905 15.1076 3.9375H20.0936C19.8984 4.27219 19.5396 4.5 19.125 4.5H18.5625C18.4133 4.5 18.2702 4.55926 18.1648 4.66475C18.0593 4.77024 18 4.91332 18 5.0625V7.43625L16.9414 7.67137L17.6108 9.10069L21.9555 10.5092L22.8527 8.26706L19.125 7.4385V5.625C20.1707 5.625 21.0437 4.905 21.2951 3.9375H29.0936C28.8984 4.27219 28.5396 4.5 28.125 4.5H27.5625C27.4133 4.5 27.2702 4.55926 27.1648 4.66475C27.0593 4.77024 27 4.91332 27 5.0625V6.86137L24.9092 7.326L25.1533 8.424L27.5625 7.8885L32.2414 8.92856L33.4024 11.25H28.125V12.375H28.9789L29.8125 24.1875H32.0625V12.375H34.3125C34.4085 12.3754 34.503 12.3511 34.587 12.3045C34.6709 12.2579 34.7415 12.1906 34.792 12.1089C34.8425 12.0273 34.8712 11.934 34.8754 11.8381C34.8796 11.7422 34.8591 11.6468 34.8159 11.5611L33.1284 8.18606C33.0909 8.11131 33.0372 8.04584 32.9712 7.99438C32.9053 7.94292 32.8287 7.90676 32.7471 7.8885L28.125 6.86137V5.625C29.1707 5.625 30.0437 4.905 30.2951 3.9375Z" fill="black"/>
</svg>
