<svg width="28" height="28" viewBox="0 0 28 28" fill="none" xmlns="http://www.w3.org/2000/svg">
<path d="M9.53674e-07 10.5C9.53674e-07 8.57033 1.57033 7 3.5 7H7C8.05 7 8.98333 7.47483 9.625 8.20983C9.95022 7.83176 10.3529 7.52805 10.8059 7.3193C11.2588 7.11056 11.7513 7.00166 12.25 7H15.75C16.8 7 17.7333 7.47483 18.375 8.20983C18.7002 7.83176 19.1029 7.52805 19.5559 7.3193C20.0088 7.11056 20.5013 7.00166 21 7H24.5C26.4297 7 28 8.57033 28 10.5V19.8333H25.6667V28H23.3333V19.8333H22.1667V28H19.8333V19.8333H16.9167V28H14.5833V19.8333H13.4167V28H11.0833V19.8333H8.16667V28H5.83333V19.8333H4.66667V28H2.33333V19.8333H9.53674e-07V10.5ZM19.8333 17.5H25.6667V10.5C25.6667 9.856 25.1428 9.33333 24.5 9.33333H21C20.3572 9.33333 19.8333 9.856 19.8333 10.5V17.5ZM11.0833 17.5H16.9167V10.5C16.9167 9.856 16.3928 9.33333 15.75 9.33333H12.25C11.6072 9.33333 11.0833 9.856 11.0833 10.5V17.5ZM2.33333 17.5H8.16667V10.5C8.16667 9.856 7.64283 9.33333 7 9.33333H3.5C2.85717 9.33333 2.33333 9.856 2.33333 10.5V17.5ZM8.16667 2.91667C8.16667 2.14312 7.85938 1.40125 7.3124 0.854272C6.76541 0.307291 6.02355 0 5.25 0C4.47645 0 3.73459 0.307291 3.18761 0.854272C2.64062 1.40125 2.33333 2.14312 2.33333 2.91667C2.33333 3.69021 2.64062 4.43208 3.18761 4.97906C3.73459 5.52604 4.47645 5.83333 5.25 5.83333C6.02355 5.83333 6.76541 5.52604 7.3124 4.97906C7.85938 4.43208 8.16667 3.69021 8.16667 2.91667ZM16.9167 2.91667C16.9167 2.14312 16.6094 1.40125 16.0624 0.854272C15.5154 0.307291 14.7735 0 14 0C13.2265 0 12.4846 0.307291 11.9376 0.854272C11.3906 1.40125 11.0833 2.14312 11.0833 2.91667C11.0833 3.69021 11.3906 4.43208 11.9376 4.97906C12.4846 5.52604 13.2265 5.83333 14 5.83333C14.7735 5.83333 15.5154 5.52604 16.0624 4.97906C16.6094 4.43208 16.9167 3.69021 16.9167 2.91667ZM25.6667 2.91667C25.6667 2.14312 25.3594 1.40125 24.8124 0.854272C24.2654 0.307291 23.5235 0 22.75 0C21.9765 0 21.2346 0.307291 20.6876 0.854272C20.1406 1.40125 19.8333 2.14312 19.8333 2.91667C19.8333 3.69021 20.1406 4.43208 20.6876 4.97906C21.2346 5.52604 21.9765 5.83333 22.75 5.83333C23.5235 5.83333 24.2654 5.52604 24.8124 4.97906C25.3594 4.43208 25.6667 3.69021 25.6667 2.91667Z" fill="#FF4900"/>
</svg>
