<svg width="56" height="56" viewBox="0 0 56 56" fill="none" xmlns="http://www.w3.org/2000/svg">
<path d="M36 28C36 25.7917 35.2188 23.9062 33.6562 22.3438C32.0938 20.7812 30.2083 20 28 20C25.7917 20 23.9062 20.7812 22.3438 22.3438C20.7812 23.9062 20 25.7917 20 28C20 30.2083 20.7812 32.0938 22.3438 33.6562C23.9062 35.2188 25.7917 36 28 36C30.2083 36 32.0938 35.2188 33.6562 33.6562C35.2188 32.0938 36 30.2083 36 28ZM40.3125 28C40.3125 31.4167 39.1146 34.3229 36.7188 36.7188C34.3229 39.1146 31.4167 40.3125 28 40.3125C24.5833 40.3125 21.6771 39.1146 19.2812 36.7188C16.8854 34.3229 15.6875 31.4167 15.6875 28C15.6875 24.5833 16.8854 21.6771 19.2812 19.2812C21.6771 16.8854 24.5833 15.6875 28 15.6875C31.4167 15.6875 34.3229 16.8854 36.7188 19.2812C39.1146 21.6771 40.3125 24.5833 40.3125 28ZM43.6875 15.1875C43.6875 15.9792 43.4062 16.6562 42.8438 17.2188C42.2812 17.7812 41.6042 18.0625 40.8125 18.0625C40.0208 18.0625 39.3438 17.7812 38.7812 17.2188C38.2188 16.6562 37.9375 15.9792 37.9375 15.1875C37.9375 14.3958 38.2188 13.7188 38.7812 13.1562C39.3438 12.5938 40.0208 12.3125 40.8125 12.3125C41.6042 12.3125 42.2812 12.5938 42.8438 13.1562C43.4062 13.7188 43.6875 14.3958 43.6875 15.1875ZM28 8.3125C27.8542 8.3125 27.0573 8.30729 25.6094 8.29688C24.1615 8.28646 23.0625 8.28646 22.3125 8.29688C21.5625 8.30729 20.5573 8.33854 19.2969 8.39062C18.0365 8.44271 16.9635 8.54688 16.0781 8.70312C15.1927 8.85938 14.4479 9.05208 13.8438 9.28125C12.8021 9.69792 11.8854 10.3021 11.0938 11.0938C10.3021 11.8854 9.69792 12.8021 9.28125 13.8438C9.05208 14.4479 8.85938 15.1927 8.70312 16.0781C8.54688 16.9635 8.44271 18.0365 8.39062 19.2969C8.33854 20.5573 8.30729 21.5625 8.29688 22.3125C8.28646 23.0625 8.28646 24.1615 8.29688 25.6094C8.30729 27.0573 8.3125 27.8542 8.3125 28C8.3125 28.1458 8.30729 28.9427 8.29688 30.3906C8.28646 31.8385 8.28646 32.9375 8.29688 33.6875C8.30729 34.4375 8.33854 35.4427 8.39062 36.7031C8.44271 37.9635 8.54688 39.0365 8.70312 39.9219C8.85938 40.8073 9.05208 41.5521 9.28125 42.1562C9.69792 43.1979 10.3021 44.1146 11.0938 44.9062C11.8854 45.6979 12.8021 46.3021 13.8438 46.7188C14.4479 46.9479 15.1927 47.1406 16.0781 47.2969C16.9635 47.4531 18.0365 47.5573 19.2969 47.6094C20.5573 47.6615 21.5625 47.6927 22.3125 47.7031C23.0625 47.7135 24.1615 47.7135 25.6094 47.7031C27.0573 47.6927 27.8542 47.6875 28 47.6875C28.1458 47.6875 28.9427 47.6927 30.3906 47.7031C31.8385 47.7135 32.9375 47.7135 33.6875 47.7031C34.4375 47.6927 35.4427 47.6615 36.7031 47.6094C37.9635 47.5573 39.0365 47.4531 39.9219 47.2969C40.8073 47.1406 41.5521 46.9479 42.1562 46.7188C43.1979 46.3021 44.1146 45.6979 44.9062 44.9062C45.6979 44.1146 46.3021 43.1979 46.7188 42.1562C46.9479 41.5521 47.1406 40.8073 47.2969 39.9219C47.4531 39.0365 47.5573 37.9635 47.6094 36.7031C47.6615 35.4427 47.6927 34.4375 47.7031 33.6875C47.7135 32.9375 47.7135 31.8385 47.7031 30.3906C47.6927 28.9427 47.6875 28.1458 47.6875 28C47.6875 27.8542 47.6927 27.0573 47.7031 25.6094C47.7135 24.1615 47.7135 23.0625 47.7031 22.3125C47.6927 21.5625 47.6615 20.5573 47.6094 19.2969C47.5573 18.0365 47.4531 16.9635 47.2969 16.0781C47.1406 15.1927 46.9479 14.4479 46.7188 13.8438C46.3021 12.8021 45.6979 11.8854 44.9062 11.0938C44.1146 10.3021 43.1979 9.69792 42.1562 9.28125C41.5521 9.05208 40.8073 8.85938 39.9219 8.70312C39.0365 8.54688 37.9635 8.44271 36.7031 8.39062C35.4427 8.33854 34.4375 8.30729 33.6875 8.29688C32.9375 8.28646 31.8385 8.28646 30.3906 8.29688C28.9427 8.30729 28.1458 8.3125 28 8.3125ZM52 28C52 32.7708 51.9479 36.0729 51.8438 37.9062C51.6354 42.2396 50.3438 45.5938 47.9688 47.9688C45.5938 50.3438 42.2396 51.6354 37.9062 51.8438C36.0729 51.9479 32.7708 52 28 52C23.2292 52 19.9271 51.9479 18.0938 51.8438C13.7604 51.6354 10.4062 50.3438 8.03125 47.9688C5.65625 45.5938 4.36458 42.2396 4.15625 37.9062C4.05208 36.0729 4 32.7708 4 28C4 23.2292 4.05208 19.9271 4.15625 18.0938C4.36458 13.7604 5.65625 10.4062 8.03125 8.03125C10.4062 5.65625 13.7604 4.36458 18.0938 4.15625C19.9271 4.05208 23.2292 4 28 4C32.7708 4 36.0729 4.05208 37.9062 4.15625C42.2396 4.36458 45.5938 5.65625 47.9688 8.03125C50.3438 10.4062 51.6354 13.7604 51.8438 18.0938C51.9479 19.9271 52 23.2292 52 28Z" fill="white"/>
</svg>
