<svg width="24" height="24" viewBox="0 0 24 24" fill="none" xmlns="http://www.w3.org/2000/svg">
<g clip-path="url(#clip0_328_4283)">
<path d="M12.042 24.008L12.7391 23.4105C13.7001 22.6058 22.0911 15.3591 22.0911 10.0583C22.0911 4.50839 17.592 0.00927734 12.042 0.00927734C6.49214 0.00927734 1.99303 4.50839 1.99303 10.0583C1.99303 15.3592 10.384 22.6059 11.341 23.4145L12.042 24.008ZM12.042 2.18217C16.3898 2.18709 19.9132 5.71045 19.9181 10.0582C19.9181 13.3883 14.7557 18.7081 12.042 21.1429C9.32836 18.7071 4.16597 13.3843 4.16597 10.0582C4.17089 5.71045 7.69421 2.18714 12.042 2.18217Z" fill="#FF4900"/>
<path d="M12.042 14.0414C14.242 14.0414 16.0254 12.258 16.0254 10.0581C16.0254 7.85811 14.242 6.07471 12.042 6.07471C9.84211 6.07471 8.0587 7.85811 8.0587 10.0581C8.0587 12.258 9.84206 14.0414 12.042 14.0414ZM12.042 8.06633C13.142 8.06633 14.0337 8.95804 14.0337 10.058C14.0337 11.158 13.142 12.0497 12.042 12.0497C10.9421 12.0497 10.0504 11.158 10.0504 10.058C10.0504 8.95804 10.942 8.06633 12.042 8.06633Z" fill="#FF4900"/>
</g>
<defs>
<clipPath id="clip0_328_4283">
<rect width="24" height="24" fill="white" transform="matrix(-1 0 0 1 24 0)"/>
</clipPath>
</defs>
</svg>
