<svg width="232" height="120" viewBox="0 0 232 120" fill="none" xmlns="http://www.w3.org/2000/svg">
<g clip-path="url(#clip0_2005_286)">
<path d="M25.8014 62.3168H32.3169L37.6449 96.555L40.1214 62.3168H48.6725L42.3596 111.654H34.2849L29.2627 79.7585L23.8671 111.654H15.7925L9.4458 62.3168H17.9969L20.4734 96.555L25.8014 62.3168Z" fill="white"/>
<mask id="mask0_2005_286" style="mask-type:luminance" maskUnits="userSpaceOnUse" x="-63" y="-97" width="372" height="306">
<path d="M-62.6667 -96.0002H308.805V208.778H-62.6667V-96.0002Z" fill="white"/>
</mask>
<g mask="url(#mask0_2005_286)">
<path d="M65.825 103.24C66.4472 102.9 66.9165 102.415 67.233 101.78C67.5494 101.147 67.7076 100.377 67.7076 99.4724V74.4306C67.7076 73.5489 67.5494 72.7915 67.233 72.1569C66.9165 71.524 66.4472 71.0369 65.825 70.6973C65.2028 70.3577 64.4614 70.1889 63.6028 70.1889C62.7423 70.1889 62.0081 70.3577 61.3965 70.6973C60.7868 71.0369 60.3228 71.524 60.0063 72.1569C59.6881 72.7915 59.5299 73.5489 59.5299 74.4306V99.4724C59.5299 100.377 59.6881 101.147 60.0063 101.78C60.3228 102.415 60.7868 102.9 61.3965 103.24C62.0081 103.579 62.7423 103.748 63.6028 103.748C64.4614 103.748 65.2028 103.579 65.825 103.24ZM56.7992 110.79C54.9094 109.872 53.4676 108.55 52.4721 106.82C51.4765 105.088 50.9788 103.001 50.9788 100.559V73.4137C50.9788 70.9693 51.4765 68.8769 52.4721 67.1346C53.4676 65.3942 54.9094 64.0697 56.7992 63.1649C58.6872 62.26 60.9556 61.8084 63.6028 61.8084C66.2499 61.8084 68.5165 62.26 70.4063 63.1649C72.2943 64.0697 73.7361 65.3942 74.7316 67.1346C75.7272 68.8769 76.225 70.9693 76.225 73.4137V100.559C76.225 103.001 75.7272 105.088 74.7316 106.82C73.7361 108.55 72.2943 109.872 70.4063 110.79C68.5165 111.705 66.2499 112.164 63.6028 112.164C60.9556 112.164 58.6872 111.705 56.7992 110.79Z" fill="white"/>
</g>
<mask id="mask1_2005_286" style="mask-type:luminance" maskUnits="userSpaceOnUse" x="-63" y="-97" width="372" height="306">
<path d="M-62.6667 -96.0002H308.805V208.778H-62.6667V-96.0002Z" fill="white"/>
</mask>
<g mask="url(#mask1_2005_286)">
<path d="M92.2069 89.2594L99.91 87.6985L107.782 111.654H98.7562L92.2069 89.2594ZM85.3535 82.71H94.2442C94.966 82.71 95.5935 82.5802 96.1269 82.3207C96.6566 82.0594 97.0584 81.686 97.3304 81.2007C97.6024 80.7136 97.7375 80.1305 97.7375 79.4531V73.9562C97.7375 73.2096 97.6024 72.5642 97.3304 72.022C97.0584 71.478 96.6566 71.0656 96.1269 70.7829C95.5935 70.5002 94.966 70.358 94.2442 70.358H85.3535V62.2834H93.734C96.4024 62.2834 98.6833 62.7189 100.571 63.59C102.459 64.4611 103.903 65.7394 104.898 67.4229C105.892 69.11 106.392 71.1278 106.392 73.4816V79.2487C106.392 81.67 105.892 83.7447 104.898 85.4762C103.903 87.206 102.454 88.5234 100.554 89.4282C98.6531 90.3331 96.3811 90.7865 93.734 90.7865H85.3535V82.71ZM81.5864 62.2834H89.8318V111.654H81.5864V62.2834Z" fill="white"/>
</g>
<mask id="mask2_2005_286" style="mask-type:luminance" maskUnits="userSpaceOnUse" x="-63" y="-97" width="372" height="306">
<path d="M-62.6667 -96.0002H308.805V208.778H-62.6667V-96.0002Z" fill="white"/>
</mask>
<g mask="url(#mask2_2005_286)">
<path d="M122.746 84.7126L128.515 79.6566L140.323 111.655H131.093L122.746 84.7126ZM119.658 88.8531L129.262 62.3162H138.762L119.658 103.817V88.8531ZM112.974 62.3162H121.388V111.653H112.974V62.3162Z" fill="white"/>
</g>
<mask id="mask3_2005_286" style="mask-type:luminance" maskUnits="userSpaceOnUse" x="-63" y="-97" width="372" height="306">
<path d="M-62.6667 -96.0002H308.805V208.778H-62.6667V-96.0002Z" fill="white"/>
</mask>
<g mask="url(#mask3_2005_286)">
<path d="M147.042 103.443H165.228V111.655H147.042V103.443ZM147.042 83.0486H163.532V91.2264H147.042V83.0486ZM147.042 62.3162H165.228V70.5277H147.042V62.3162ZM143.31 62.3162H151.724V111.653H143.31V62.3162Z" fill="white"/>
</g>
<mask id="mask4_2005_286" style="mask-type:luminance" maskUnits="userSpaceOnUse" x="-63" y="-97" width="372" height="306">
<path d="M-62.6667 -96.0002H308.805V208.778H-62.6667V-96.0002Z" fill="white"/>
</mask>
<g mask="url(#mask4_2005_286)">
<path d="M180.194 89.2594L187.897 87.6985L195.769 111.654H186.743L180.194 89.2594ZM173.341 82.71H182.231C182.953 82.71 183.581 82.5802 184.114 82.3207C184.644 82.0594 185.045 81.686 185.317 81.2007C185.589 80.7136 185.725 80.1305 185.725 79.4531V73.9562C185.725 73.2096 185.589 72.5642 185.317 72.022C185.045 71.478 184.644 71.0656 184.114 70.7829C183.581 70.5002 182.953 70.358 182.231 70.358H173.341V62.2834H181.721C184.389 62.2834 186.67 62.7189 188.558 63.59C190.446 64.4611 191.89 65.7394 192.885 67.4229C193.879 69.11 194.379 71.1278 194.379 73.4816V79.2487C194.379 81.67 193.879 83.7447 192.885 85.4762C191.89 87.206 190.441 88.5234 188.541 89.4282C186.64 90.3331 184.368 90.7865 181.721 90.7865H173.341V82.71ZM169.573 62.2834H177.819V111.654H169.573V62.2834Z" fill="white"/>
</g>
<mask id="mask5_2005_286" style="mask-type:luminance" maskUnits="userSpaceOnUse" x="-63" y="-97" width="372" height="306">
<path d="M-62.6667 -96.0002H308.805V208.778H-62.6667V-96.0002Z" fill="white"/>
</mask>
<g mask="url(#mask5_2005_286)">
<path d="M204.659 110.721C202.805 109.76 201.385 108.369 200.401 106.547C199.417 104.727 198.924 102.538 198.924 99.9818V97.3347L207.306 97.2671V99.9143C207.306 101.159 207.657 102.136 208.359 102.849C209.059 103.562 210.032 103.918 211.276 103.918C212.497 103.918 213.441 103.568 214.11 102.867C214.777 102.165 215.111 101.203 215.111 99.9818V95.6725C215.111 94.7676 214.857 93.9818 214.348 93.3134C213.838 92.6467 213.182 92.0707 212.378 91.5836C211.577 91.0965 210.483 90.5151 209.104 89.836C209.015 89.7916 208.929 89.7454 208.849 89.7009C208.771 89.6547 208.686 89.6103 208.595 89.564L208.154 89.3614C206.323 88.4334 204.762 87.4663 203.472 86.46C202.183 85.4538 201.107 84.124 200.249 82.4725C199.388 80.8227 198.958 78.7854 198.958 76.364V73.82C198.958 71.3098 199.44 69.1551 200.401 67.356C201.363 65.5569 202.759 64.1827 204.592 63.2334C206.425 62.2823 208.629 61.8076 211.209 61.8076C213.719 61.8076 215.881 62.2823 217.69 63.2334C219.5 64.1827 220.88 65.5694 221.829 67.3898C222.778 69.2103 223.255 71.3987 223.255 73.9551V76.7374L214.874 76.8405V74.0227C214.874 72.7569 214.551 71.7667 213.905 71.0556C213.262 70.3427 212.362 69.9854 211.209 69.9854C209.987 69.9854 209.041 70.3089 208.375 70.9525C207.708 71.5978 207.374 72.4849 207.374 73.6156V76.908C207.374 77.836 207.617 78.6378 208.103 79.3169C208.59 79.996 209.201 80.5667 209.936 81.0307C210.67 81.4947 211.696 82.0547 213.008 82.7107C213.255 82.8245 213.511 82.9471 213.77 83.084C214.03 83.2191 214.297 83.3543 214.569 83.4911C214.613 83.5143 214.652 83.5356 214.688 83.5587C214.721 83.5818 214.761 83.6049 214.805 83.6263C216.682 84.6218 218.199 85.5427 219.353 86.3907C220.506 87.2405 221.489 88.4334 222.304 89.9711C223.118 91.5107 223.525 93.4787 223.525 95.8751V99.9818C223.525 102.538 223.045 104.727 222.083 106.547C221.121 108.369 219.726 109.76 217.893 110.721C216.062 111.683 213.866 112.163 211.31 112.163C208.732 112.163 206.513 111.683 204.659 110.721Z" fill="white"/>
</g>
<mask id="mask6_2005_286" style="mask-type:luminance" maskUnits="userSpaceOnUse" x="-63" y="-97" width="372" height="306">
<path d="M-62.6667 -96.0002H308.805V208.778H-62.6667V-96.0002Z" fill="white"/>
</mask>
<g mask="url(#mask6_2005_286)">
<path d="M190.406 50.2783H193.89V54.4312C193.89 55.1636 193.757 55.7894 193.485 56.3085C193.215 56.8276 192.822 57.2258 192.31 57.5014C191.798 57.7787 191.179 57.9174 190.452 57.9174C189.721 57.9174 189.096 57.7841 188.573 57.5156C188.05 57.2489 187.65 56.8632 187.375 56.3547C187.097 55.8498 186.96 55.2401 186.96 54.5272V47.3272C186.96 46.5769 187.094 45.9334 187.364 45.3983C187.634 44.8649 188.029 44.4561 188.543 44.1716C189.06 43.8889 189.677 43.7467 190.397 43.7467C191.11 43.7467 191.716 43.8836 192.221 44.1574C192.724 44.4312 193.11 44.8276 193.376 45.3467C193.643 45.8658 193.776 46.4916 193.776 47.2223V48.2925H191.341V47.2223C191.341 46.8845 191.256 46.6214 191.085 46.4294C190.911 46.2392 190.681 46.1432 190.397 46.1432C190.077 46.1432 189.826 46.2498 189.641 46.4632C189.458 46.6765 189.366 46.9645 189.366 47.3272V54.5272C189.366 54.8276 189.462 55.0658 189.656 55.2436C189.851 55.4214 190.116 55.5103 190.452 55.5103C190.804 55.5103 191.078 55.4178 191.275 55.2294C191.472 55.0409 191.57 54.7814 191.57 54.4507V52.5503H190.406V50.2783Z" fill="white"/>
</g>
<mask id="mask7_2005_286" style="mask-type:luminance" maskUnits="userSpaceOnUse" x="-63" y="-97" width="372" height="306">
<path d="M-62.6667 -96.0002H308.805V208.778H-62.6667V-96.0002Z" fill="white"/>
</mask>
<g mask="url(#mask7_2005_286)">
<path d="M203.659 57.774V50.7749C203.659 50.4638 203.593 50.2255 203.464 50.0638C203.332 49.9002 203.136 49.8202 202.877 49.8202C202.608 49.8202 202.408 49.9002 202.271 50.0584C202.134 50.2184 202.064 50.4531 202.064 50.766L201.894 49.4949C202.116 48.8975 202.422 48.446 202.809 48.1438C203.197 47.8415 203.627 47.6904 204.098 47.6904C204.717 47.6904 205.195 47.9109 205.54 48.35C205.883 48.7891 206.057 49.406 206.057 50.2024V57.774H203.659ZM199.679 57.774V50.7749C199.679 50.4638 199.609 50.2255 199.472 50.0638C199.334 49.9002 199.133 49.8202 198.866 49.8202C198.61 49.8202 198.418 49.9002 198.283 50.0584C198.15 50.2184 198.082 50.4531 198.082 50.766L197.883 49.534C198.098 48.9278 198.4 48.4709 198.79 48.158C199.177 47.8469 199.611 47.6904 200.088 47.6904C200.719 47.6904 201.206 47.8895 201.549 48.2878C201.894 48.686 202.064 49.2567 202.064 50.0015V57.774H199.679ZM195.686 47.8629H198.084V57.774H195.686V47.8629Z" fill="white"/>
</g>
<mask id="mask8_2005_286" style="mask-type:luminance" maskUnits="userSpaceOnUse" x="-63" y="-97" width="372" height="306">
<path d="M-62.6667 -96.0002H308.805V208.778H-62.6667V-96.0002Z" fill="white"/>
</mask>
<g mask="url(#mask8_2005_286)">
<path d="M212.1 57.9172C211.654 57.9172 211.265 57.7679 210.93 57.4692C210.596 57.1688 210.347 56.7528 210.182 56.2177L210.314 54.8239C210.314 55.0283 210.346 55.2008 210.406 55.343C210.466 55.487 210.554 55.5954 210.667 55.6683C210.783 55.7412 210.92 55.7786 211.078 55.7786C211.314 55.7786 211.496 55.6914 211.622 55.5154C211.75 55.3412 211.814 55.0977 211.814 54.7848V50.7741C211.814 50.4754 211.75 50.2443 211.622 50.0772C211.496 49.9119 211.314 49.8301 211.078 49.8301C210.92 49.8301 210.783 49.8621 210.667 49.9297C210.554 49.9954 210.466 50.0968 210.406 50.2301C210.346 50.3634 210.314 50.5323 210.314 50.7368L210.114 49.5048C210.337 48.9323 210.623 48.4861 210.973 48.1679C211.323 47.8497 211.711 47.6914 212.138 47.6914C212.776 47.6914 213.266 47.9279 213.615 48.4026C213.962 48.8772 214.134 49.5492 214.134 50.4221V55.1297C214.134 56.0132 213.956 56.6994 213.599 57.1866C213.243 57.6737 212.742 57.9172 212.1 57.9172ZM207.946 43.8906H210.314V57.775H207.946V43.8906Z" fill="white"/>
</g>
<mask id="mask9_2005_286" style="mask-type:luminance" maskUnits="userSpaceOnUse" x="-63" y="-97" width="372" height="306">
<path d="M-62.6667 -96.0002H308.805V208.778H-62.6667V-96.0002Z" fill="white"/>
</mask>
<g mask="url(#mask9_2005_286)">
<path d="M219.959 43.8895H222.327V57.774H219.959V43.8895ZM216.845 49.8202H221.495V52.0442H216.845V49.8202ZM215.721 43.8895H218.089V57.774H215.721V43.8895Z" fill="white"/>
</g>
<mask id="mask10_2005_286" style="mask-type:luminance" maskUnits="userSpaceOnUse" x="-63" y="-97" width="372" height="306">
<path d="M-62.6667 -96.0002H308.805V208.778H-62.6667V-96.0002Z" fill="white"/>
</mask>
<g mask="url(#mask10_2005_286)">
<path d="M80.7328 39.5403V58.4398H71.8795V39.5403L62.1675 9.10472H71.3781L76.235 29.5314L80.875 9.10472H90.0875L80.7328 39.5403Z" fill="white"/>
</g>
<mask id="mask11_2005_286" style="mask-type:luminance" maskUnits="userSpaceOnUse" x="-63" y="-97" width="372" height="306">
<path d="M-62.6667 -96.0002H308.805V208.778H-62.6667V-96.0002Z" fill="white"/>
</mask>
<g mask="url(#mask11_2005_286)">
<path d="M116.361 13.8186L109.046 29.1395V46.2595C109.046 47.1644 108.878 47.9324 108.544 48.567C108.212 49.1999 107.718 49.6853 107.063 50.0248C106.409 50.3644 105.629 50.535 104.724 50.535C103.821 50.535 103.047 50.3644 102.404 50.0248C101.762 49.6853 101.273 49.1999 100.941 48.567C100.706 48.1208 100.583 47.5821 100.514 47.0026L95.9824 56.4924C96.2064 56.6755 96.4322 56.8604 96.6473 57.015C96.9798 57.2533 97.2926 57.4488 97.5664 57.5733C99.554 58.4906 101.94 58.9475 104.724 58.9475C107.51 58.9475 109.895 58.4906 111.883 57.5733C113.87 56.6577 115.387 55.335 116.436 53.6053C117.483 51.8737 118.006 49.7884 118.006 47.3439V20.2008C118.006 17.7581 117.483 15.6657 116.436 13.9235C116.413 13.8861 116.384 13.8559 116.361 13.8186Z" fill="white"/>
</g>
<mask id="mask12_2005_286" style="mask-type:luminance" maskUnits="userSpaceOnUse" x="-63" y="-97" width="372" height="306">
<path d="M-62.6667 -96.0002H308.805V208.778H-62.6667V-96.0002Z" fill="white"/>
</mask>
<g mask="url(#mask12_2005_286)">
<path d="M100.441 36.7764V21.2173C100.441 20.3355 100.606 19.5782 100.94 18.9453C101.273 18.3124 101.762 17.8253 102.403 17.4858C103.047 17.1462 103.82 16.9773 104.725 16.9773C105.628 16.9773 106.409 17.1462 107.063 17.4858C107.267 17.5924 107.458 17.7133 107.632 17.8484C107.717 17.916 107.799 17.9853 107.877 18.06C108.066 18.2378 108.231 18.4369 108.375 18.6555C108.435 18.748 108.492 18.844 108.546 18.9453C108.624 19.0947 108.661 19.2724 108.722 19.436L112.972 10.5329C112.771 10.412 112.59 10.3053 112.53 10.2733C112.378 10.1933 112.156 10.0795 111.884 9.95332C108.953 8.5951 106.282 8.59688 104.725 8.59688C101.939 8.59688 99.5536 9.04843 97.566 9.95332C95.5785 10.8582 94.062 12.1809 93.0149 13.9231C91.966 15.6653 91.4434 17.7578 91.4434 20.2004V47.3435C91.4434 49.5089 91.8789 51.3773 92.702 52.9827L100.441 36.7764Z" fill="white"/>
</g>
<mask id="mask13_2005_286" style="mask-type:luminance" maskUnits="userSpaceOnUse" x="-63" y="-97" width="372" height="306">
<path d="M-62.6667 -96.0002H308.805V208.778H-62.6667V-96.0002Z" fill="white"/>
</mask>
<g mask="url(#mask13_2005_286)">
<path d="M128.092 57.4726C126.224 56.4877 124.802 55.0637 123.826 53.197C122.85 51.3304 122.361 49.0975 122.361 46.4966V9.10458H131.252V46.733C131.252 47.933 131.561 48.8664 132.18 49.533C132.798 50.2015 133.655 50.5339 134.75 50.5339C135.87 50.5339 136.743 50.2015 137.374 49.533C138.005 48.8664 138.32 47.933 138.32 46.733V9.10458H147.211V46.4966C147.211 49.0975 146.716 51.3304 145.728 53.197C144.741 55.0637 143.314 56.4877 141.445 57.4726C139.575 58.4575 137.344 58.9481 134.75 58.9481C132.18 58.9481 129.961 58.4575 128.092 57.4726Z" fill="white"/>
</g>
<mask id="mask14_2005_286" style="mask-type:luminance" maskUnits="userSpaceOnUse" x="-63" y="-97" width="372" height="306">
<path d="M-62.6667 -96.0002H308.805V208.778H-62.6667V-96.0002Z" fill="white"/>
</mask>
<g mask="url(#mask14_2005_286)">
<path d="M163.455 36.0455L171.56 34.4846L179.843 58.4402H170.346L163.455 36.0455ZM156.243 29.4979H165.598C166.358 29.4979 167.02 29.3682 167.578 29.1068C168.138 28.8473 168.561 28.4739 168.846 27.9868C169.132 27.5015 169.274 26.9184 169.274 26.2393V20.7442C169.274 19.9975 169.132 19.3522 168.846 18.8099C168.561 18.2677 168.138 17.8553 167.578 17.5708C167.02 17.2882 166.358 17.1477 165.598 17.1477H156.243V9.07127H165.062C167.87 9.07127 170.268 9.50682 172.255 10.3779C174.243 11.249 175.759 12.5273 176.808 14.2126C177.855 15.8979 178.38 17.9157 178.38 20.2677V26.0366C178.38 28.4562 177.855 30.5326 176.808 32.2624C175.759 33.9939 174.238 35.3113 172.238 36.2162C170.238 37.1193 167.846 37.5726 165.062 37.5726H156.243V29.4979ZM152.28 9.07127H160.956V58.4402H152.28V9.07127Z" fill="white"/>
</g>
<path d="M9.39014 9.86306H11.3226V21.4631H9.39014V9.86306Z" fill="white"/>
<path d="M9.39014 21.4631H11.3226V23.3955H9.39014V21.4631Z" fill="white"/>
<path d="M9.39014 25.3298H11.3226V31.1289H9.39014V25.3298Z" fill="white"/>
<path d="M9.39014 31.1289H11.3226V33.0614H9.39014V31.1289Z" fill="white"/>
<path d="M9.39014 34.9956H11.3226V36.9281H9.39014V34.9956Z" fill="white"/>
<path d="M9.39014 40.7946H11.3226V42.7271H9.39014V40.7946Z" fill="white"/>
<path d="M9.39014 44.6613H11.3226V48.528H9.39014V44.6613Z" fill="white"/>
<path d="M9.39014 48.528H11.3226V54.3271H9.39014V48.528Z" fill="white"/>
<path d="M9.39014 54.3272H11.3226V58.1938H9.39014V54.3272Z" fill="white"/>
<path d="M11.3225 9.86314H13.255V11.7956H11.3225V9.86314Z" fill="white"/>
<path d="M11.3225 21.4631H13.255V23.3955H11.3225V21.4631Z" fill="white"/>
<path d="M11.3225 31.1289H13.255V33.0614H11.3225V31.1289Z" fill="white"/>
<path d="M11.3225 34.9956H13.255V36.9281H11.3225V34.9956Z" fill="white"/>
<path d="M11.3225 40.7946H13.255V42.7271H11.3225V40.7946Z" fill="white"/>
<path d="M11.3225 44.6613H13.255V46.5938H11.3225V44.6613Z" fill="white"/>
<path d="M11.3225 56.2614H13.255V58.1938H11.3225V56.2614Z" fill="white"/>
<path d="M13.2568 9.86314H15.1893V11.7956H13.2568V9.86314Z" fill="white"/>
<path d="M13.2568 13.7299H15.1893V19.529H13.2568V13.7299Z" fill="white"/>
<path d="M13.2568 21.4631H15.1893V23.3955H13.2568V21.4631Z" fill="white"/>
<path d="M13.2568 34.9956H15.1893V36.9281H13.2568V34.9956Z" fill="white"/>
<path d="M13.2568 38.8622H15.1893V42.7288H13.2568V38.8622Z" fill="white"/>
<path d="M13.2568 44.6613H15.1893V46.5938H13.2568V44.6613Z" fill="white"/>
<path d="M13.2568 48.528H15.1893V54.3271H13.2568V48.528Z" fill="white"/>
<path d="M13.2568 56.2614H15.1893V58.1938H13.2568V56.2614Z" fill="white"/>
<path d="M15.1895 9.86314H17.1219V11.7956H15.1895V9.86314Z" fill="white"/>
<path d="M15.1895 13.7299H17.1219V19.529H15.1895V13.7299Z" fill="white"/>
<path d="M15.1895 21.4631H17.1219V23.3955H15.1895V21.4631Z" fill="white"/>
<path d="M15.1895 29.1947H17.1219V31.1271H15.1895V29.1947Z" fill="white"/>
<path d="M15.1895 38.8622H17.1219V42.7288H15.1895V38.8622Z" fill="white"/>
<path d="M15.1895 44.6613H17.1219V46.5938H15.1895V44.6613Z" fill="white"/>
<path d="M15.1895 48.528H17.1219V54.3271H15.1895V48.528Z" fill="white"/>
<path d="M15.1895 56.2614H17.1219V58.1938H15.1895V56.2614Z" fill="white"/>
<path d="M17.1235 9.86314H19.056V11.7956H17.1235V9.86314Z" fill="white"/>
<path d="M17.1235 13.7299H19.056V19.529H17.1235V13.7299Z" fill="white"/>
<path d="M17.1235 21.4631H19.056V23.3955H17.1235V21.4631Z" fill="white"/>
<path d="M17.1235 25.3298H19.056V27.2622H17.1235V25.3298Z" fill="white"/>
<path d="M17.1235 29.1947H19.056V31.1271H17.1235V29.1947Z" fill="white"/>
<path d="M17.1235 31.1288H19.056V42.7288H17.1235V31.1288Z" fill="white"/>
<path d="M17.1235 44.6613H19.056V46.5938H17.1235V44.6613Z" fill="white"/>
<path d="M17.1235 48.528H19.056V54.3271H17.1235V48.528Z" fill="white"/>
<path d="M17.1235 56.2614H19.056V58.1938H17.1235V56.2614Z" fill="white"/>
<path d="M19.0559 9.86314H20.9883V11.7956H19.0559V9.86314Z" fill="white"/>
<path d="M19.0559 21.4631H20.9883V23.3955H19.0559V21.4631Z" fill="white"/>
<path d="M19.0559 29.1947H20.9883V31.1271H19.0559V29.1947Z" fill="white"/>
<path d="M19.0559 31.1289H20.9883V33.0614H19.0559V31.1289Z" fill="white"/>
<path d="M19.0559 40.7946H20.9883V42.7271H19.0559V40.7946Z" fill="white"/>
<path d="M19.0559 44.6613H20.9883V46.5938H19.0559V44.6613Z" fill="white"/>
<path d="M19.0559 56.2614H20.9883V58.1938H19.0559V56.2614Z" fill="white"/>
<path d="M20.9902 9.86306H22.9227V21.4631H20.9902V9.86306Z" fill="white"/>
<path d="M20.9902 21.4631H22.9227V23.3955H20.9902V21.4631Z" fill="white"/>
<path d="M20.9902 25.3298H22.9227V27.2622H20.9902V25.3298Z" fill="white"/>
<path d="M20.9902 29.1947H22.9227V31.1271H20.9902V29.1947Z" fill="white"/>
<path d="M20.9902 33.0614H22.9227V34.9938H20.9902V33.0614Z" fill="white"/>
<path d="M20.9902 36.9281H22.9227V38.8605H20.9902V36.9281Z" fill="white"/>
<path d="M20.9902 40.7946H22.9227V42.7271H20.9902V40.7946Z" fill="white"/>
<path d="M20.9902 44.6613H22.9227V48.528H20.9902V44.6613Z" fill="white"/>
<path d="M20.9902 48.528H22.9227V54.3271H20.9902V48.528Z" fill="white"/>
<path d="M20.9902 54.3272H22.9227V58.1938H20.9902V54.3272Z" fill="white"/>
<path d="M22.9229 25.3298H24.8553V27.2622H22.9229V25.3298Z" fill="white"/>
<path d="M22.9229 31.129H24.8553V38.8623H22.9229V31.129Z" fill="white"/>
<path d="M22.9229 40.7946H24.8553V42.7271H22.9229V40.7946Z" fill="white"/>
<path d="M24.855 9.86314H26.7874V11.7956H24.855V9.86314Z" fill="white"/>
<path d="M24.855 15.6623H26.7874V21.4614H24.855V15.6623Z" fill="white"/>
<path d="M24.855 21.4631H26.7874V31.1289H24.855V21.4631Z" fill="white"/>
<path d="M24.855 36.9281H26.7874V40.7948H24.855V36.9281Z" fill="white"/>
<path d="M24.855 42.7289H26.7874V46.5956H24.855V42.7289Z" fill="white"/>
<path d="M24.855 48.528H26.7874V50.4604H24.855V48.528Z" fill="white"/>
<path d="M24.855 56.2614H26.7874V58.1938H24.855V56.2614Z" fill="white"/>
<path d="M26.7893 9.86316H28.7217V15.6623H26.7893V9.86316Z" fill="white"/>
<path d="M26.7893 17.5965H28.7217V19.529H26.7893V17.5965Z" fill="white"/>
<path d="M26.7893 23.3955H28.7217V25.328H26.7893V23.3955Z" fill="white"/>
<path d="M26.7893 27.2622H28.7217V29.1947H26.7893V27.2622Z" fill="white"/>
<path d="M26.7893 33.0614H28.7217V34.9938H26.7893V33.0614Z" fill="white"/>
<path d="M26.7893 36.9281H28.7217V38.8605H26.7893V36.9281Z" fill="white"/>
<path d="M26.7893 44.6613H28.7217V46.5938H26.7893V44.6613Z" fill="white"/>
<path d="M26.7893 48.528H28.7217V54.3271H26.7893V48.528Z" fill="white"/>
<path d="M28.7219 9.86314H30.6544V11.7956H28.7219V9.86314Z" fill="white"/>
<path d="M28.7219 15.6623H30.6544V17.5947H28.7219V15.6623Z" fill="white"/>
<path d="M28.7219 21.4631H30.6544V27.2622H28.7219V21.4631Z" fill="white"/>
<path d="M28.7219 29.1947H30.6544V31.1271H28.7219V29.1947Z" fill="white"/>
<path d="M28.7219 33.0614H30.6544V34.9938H28.7219V33.0614Z" fill="white"/>
<path d="M28.7219 36.9281H30.6544V38.8605H28.7219V36.9281Z" fill="white"/>
<path d="M28.7219 42.7289H30.6544V44.6613H28.7219V42.7289Z" fill="white"/>
<path d="M28.7219 46.5938H30.6544V48.5262H28.7219V46.5938Z" fill="white"/>
<path d="M28.7219 54.3272H30.6544V56.2596H28.7219V54.3272Z" fill="white"/>
<path d="M30.6558 9.86319H32.5882V17.5965H30.6558V9.86319Z" fill="white"/>
<path d="M30.6558 19.529H32.5882V21.4614H30.6558V19.529Z" fill="white"/>
<path d="M30.6558 25.3298H32.5882V31.1289H30.6558V25.3298Z" fill="white"/>
<path d="M30.6558 33.0614H32.5882V34.9938H30.6558V33.0614Z" fill="white"/>
<path d="M30.6558 36.9281H32.5882V40.7948H30.6558V36.9281Z" fill="white"/>
<path d="M30.6558 42.7289H32.5882V48.528H30.6558V42.7289Z" fill="white"/>
<path d="M30.6558 50.4605H32.5882V54.3271H30.6558V50.4605Z" fill="white"/>
<path d="M30.6558 56.2614H32.5882V58.1938H30.6558V56.2614Z" fill="white"/>
<path d="M32.5884 9.86314H34.5208V11.7956H32.5884V9.86314Z" fill="white"/>
<path d="M32.5884 13.7298H34.5208V15.6623H32.5884V13.7298Z" fill="white"/>
<path d="M32.5884 17.5964H34.5208V21.4631H32.5884V17.5964Z" fill="white"/>
<path d="M32.5884 21.4631H34.5208V25.3298H32.5884V21.4631Z" fill="white"/>
<path d="M32.5884 31.1288H34.5208V42.7288H32.5884V31.1288Z" fill="white"/>
<path d="M32.5884 46.5938H34.5208V48.5262H32.5884V46.5938Z" fill="white"/>
<path d="M32.5884 48.528H34.5208V50.4604H32.5884V48.528Z" fill="white"/>
<path d="M32.5884 54.3272H34.5208V58.1938H32.5884V54.3272Z" fill="white"/>
<path d="M34.5227 15.6623H36.4552V19.529H34.5227V15.6623Z" fill="white"/>
<path d="M34.5227 29.1947H36.4552V31.1271H34.5227V29.1947Z" fill="white"/>
<path d="M34.5227 34.9956H36.4552V36.9281H34.5227V34.9956Z" fill="white"/>
<path d="M34.5227 42.7289H36.4552V46.5956H34.5227V42.7289Z" fill="white"/>
<path d="M34.5227 50.4605H36.4552V54.3271H34.5227V50.4605Z" fill="white"/>
<path d="M36.4551 9.86314H38.3875V11.7956H36.4551V9.86314Z" fill="white"/>
<path d="M36.4551 13.7299H38.3875V17.5965H36.4551V13.7299Z" fill="white"/>
<path d="M36.4551 19.529H38.3875V21.4614H36.4551V19.529Z" fill="white"/>
<path d="M36.4551 21.4631H38.3875V23.3955H36.4551V21.4631Z" fill="white"/>
<path d="M36.4551 27.2622H38.3875V29.1947H36.4551V27.2622Z" fill="white"/>
<path d="M36.4551 31.1289H38.3875V33.0614H36.4551V31.1289Z" fill="white"/>
<path d="M36.4551 34.9956H38.3875V40.7948H36.4551V34.9956Z" fill="white"/>
<path d="M36.4551 54.3272H38.3875V58.1938H36.4551V54.3272Z" fill="white"/>
<path d="M38.3892 9.86314H40.3216V11.7956H38.3892V9.86314Z" fill="white"/>
<path d="M38.3892 15.6623H40.3216V19.529H38.3892V15.6623Z" fill="white"/>
<path d="M38.3892 23.3956H40.3216V31.1289H38.3892V23.3956Z" fill="white"/>
<path d="M38.3892 34.9956H40.3216V40.7948H38.3892V34.9956Z" fill="white"/>
<path d="M38.3892 42.7289H40.3216V44.6613H38.3892V42.7289Z" fill="white"/>
<path d="M38.3892 50.4605H40.3216V52.3929H38.3892V50.4605Z" fill="white"/>
<path d="M38.3892 54.3272H40.3216V58.1938H38.3892V54.3272Z" fill="white"/>
<path d="M40.3218 9.86315H42.2542V13.7298H40.3218V9.86315Z" fill="white"/>
<path d="M40.3218 17.5964H42.2542V21.4631H40.3218V17.5964Z" fill="white"/>
<path d="M40.3218 21.4631H42.2542V23.3955H40.3218V21.4631Z" fill="white"/>
<path d="M40.3218 29.1947H42.2542V31.1271H40.3218V29.1947Z" fill="white"/>
<path d="M40.3218 31.1289H42.2542V36.9281H40.3218V31.1289Z" fill="white"/>
<path d="M40.3218 40.7946H42.2542V42.7271H40.3218V40.7946Z" fill="white"/>
<path d="M40.3218 42.7289H42.2542V48.528H40.3218V42.7289Z" fill="white"/>
<path d="M40.3218 48.528H42.2542V52.3947H40.3218V48.528Z" fill="white"/>
<path d="M42.2542 25.3298H44.1866V29.1965H42.2542V25.3298Z" fill="white"/>
<path d="M42.2542 38.8622H44.1866V42.7288H42.2542V38.8622Z" fill="white"/>
<path d="M42.2542 48.528H44.1866V52.3947H42.2542V48.528Z" fill="white"/>
<path d="M42.2542 54.3272H44.1866V58.1938H42.2542V54.3272Z" fill="white"/>
<path d="M44.1885 9.86306H46.1209V21.4631H44.1885V9.86306Z" fill="white"/>
<path d="M44.1885 21.4631H46.1209V23.3955H44.1885V21.4631Z" fill="white"/>
<path d="M44.1885 25.3298H46.1209V27.2622H44.1885V25.3298Z" fill="white"/>
<path d="M44.1885 31.1289H46.1209V34.9956H44.1885V31.1289Z" fill="white"/>
<path d="M44.1885 36.9279H46.1209V42.7271H44.1885V36.9279Z" fill="white"/>
<path d="M44.1885 44.6613H46.1209V46.5938H44.1885V44.6613Z" fill="white"/>
<path d="M44.1885 48.528H46.1209V54.3271H44.1885V48.528Z" fill="white"/>
<path d="M44.1885 54.3272H46.1209V58.1938H44.1885V54.3272Z" fill="white"/>
<path d="M46.1211 9.86314H48.0535V11.7956H46.1211V9.86314Z" fill="white"/>
<path d="M46.1211 21.4631H48.0535V23.3955H46.1211V21.4631Z" fill="white"/>
<path d="M46.1211 25.3298H48.0535V27.2622H46.1211V25.3298Z" fill="white"/>
<path d="M46.1211 29.1947H48.0535V31.1271H46.1211V29.1947Z" fill="white"/>
<path d="M46.1211 31.1289H48.0535V33.0614H46.1211V31.1289Z" fill="white"/>
<path d="M46.1211 36.9279H48.0535V42.7271H46.1211V36.9279Z" fill="white"/>
<path d="M46.1211 48.528H48.0535V50.4604H46.1211V48.528Z" fill="white"/>
<path d="M46.1211 52.3947H48.0535V54.3271H46.1211V52.3947Z" fill="white"/>
<path d="M46.1211 54.3272H48.0535V56.2596H46.1211V54.3272Z" fill="white"/>
<path d="M48.0552 9.86314H49.9876V11.7956H48.0552V9.86314Z" fill="white"/>
<path d="M48.0552 13.7299H49.9876V19.529H48.0552V13.7299Z" fill="white"/>
<path d="M48.0552 21.4631H49.9876V23.3955H48.0552V21.4631Z" fill="white"/>
<path d="M48.0552 25.3298H49.9876V31.1289H48.0552V25.3298Z" fill="white"/>
<path d="M48.0552 34.9956H49.9876V38.8623H48.0552V34.9956Z" fill="white"/>
<path d="M48.0552 40.7946H49.9876V42.7271H48.0552V40.7946Z" fill="white"/>
<path d="M48.0552 42.7289H49.9876V48.528H48.0552V42.7289Z" fill="white"/>
<path d="M48.0552 48.528H49.9876V50.4604H48.0552V48.528Z" fill="white"/>
<path d="M48.0552 54.3272H49.9876V56.2596H48.0552V54.3272Z" fill="white"/>
<path d="M49.9875 9.86314H51.92V11.7956H49.9875V9.86314Z" fill="white"/>
<path d="M49.9875 13.7299H51.92V19.529H49.9875V13.7299Z" fill="white"/>
<path d="M49.9875 21.4631H51.92V23.3955H49.9875V21.4631Z" fill="white"/>
<path d="M49.9875 25.3298H51.92V31.1289H49.9875V25.3298Z" fill="white"/>
<path d="M49.9875 33.0614H51.92V34.9938H49.9875V33.0614Z" fill="white"/>
<path d="M49.9875 36.9279H51.92V42.7271H49.9875V36.9279Z" fill="white"/>
<path d="M49.9875 44.6613H51.92V48.528H49.9875V44.6613Z" fill="white"/>
<path d="M49.9875 50.4605H51.92V52.3929H49.9875V50.4605Z" fill="white"/>
<path d="M49.9875 54.3272H51.92V56.2596H49.9875V54.3272Z" fill="white"/>
<path d="M51.9219 9.86314H53.8543V11.7956H51.9219V9.86314Z" fill="white"/>
<path d="M51.9219 13.7299H53.8543V19.529H51.9219V13.7299Z" fill="white"/>
<path d="M51.9219 21.4631H53.8543V23.3955H51.9219V21.4631Z" fill="white"/>
<path d="M51.9219 29.1947H53.8543V31.1271H51.9219V29.1947Z" fill="white"/>
<path d="M51.9219 31.1289H53.8543V34.9956H51.9219V31.1289Z" fill="white"/>
<path d="M51.9219 36.9279H53.8543V42.7271H51.9219V36.9279Z" fill="white"/>
<path d="M51.9219 42.7289H53.8543V44.6613H51.9219V42.7289Z" fill="white"/>
<path d="M51.9219 46.5938H53.8543V48.5262H51.9219V46.5938Z" fill="white"/>
<path d="M51.9219 48.528H53.8543V52.3947H51.9219V48.528Z" fill="white"/>
<path d="M51.9219 54.3272H53.8543V58.1938H51.9219V54.3272Z" fill="white"/>
<path d="M53.854 9.86314H55.7864V11.7956H53.854V9.86314Z" fill="white"/>
<path d="M53.854 21.4631H55.7864V23.3955H53.854V21.4631Z" fill="white"/>
<path d="M53.854 27.2622H55.7864V29.1947H53.854V27.2622Z" fill="white"/>
<path d="M53.854 31.1289H55.7864V36.9281H53.854V31.1289Z" fill="white"/>
<path d="M53.854 38.8623H55.7864V40.7948H53.854V38.8623Z" fill="white"/>
<path d="M53.854 46.5938H55.7864V48.5262H53.854V46.5938Z" fill="white"/>
<path d="M53.854 50.4605H55.7864V54.3271H53.854V50.4605Z" fill="white"/>
<path d="M53.854 54.3272H55.7864V58.1938H53.854V54.3272Z" fill="white"/>
<path d="M55.7866 9.86306H57.7191V21.4631H55.7866V9.86306Z" fill="white"/>
<path d="M55.7866 21.4631H57.7191V23.3955H55.7866V21.4631Z" fill="white"/>
<path d="M55.7866 25.3298H57.7191V27.2622H55.7866V25.3298Z" fill="white"/>
<path d="M55.7866 33.0614H57.7191V34.9938H55.7866V33.0614Z" fill="white"/>
<path d="M55.7866 46.5938H57.7191V48.5262H55.7866V46.5938Z" fill="white"/>
<path d="M55.7866 50.4605H57.7191V52.3929H55.7866V50.4605Z" fill="white"/>
<path d="M55.7866 56.2614H57.7191V58.1938H55.7866V56.2614Z" fill="white"/>
<mask id="mask15_2005_286" style="mask-type:luminance" maskUnits="userSpaceOnUse" x="-63" y="-96" width="372" height="305">
<path d="M-62.6667 -96.0001H308.805V208.779H-62.6667V-96.0001Z" fill="white"/>
</mask>
<g mask="url(#mask15_2005_286)">
<path d="M209.135 118.675H22.5434C11.0732 118.675 1.77539 109.377 1.77539 97.9067V22.1093C1.77539 10.6391 11.0732 1.34133 22.5434 1.34133H209.135C220.606 1.34133 229.903 10.6391 229.903 22.1093V97.9067C229.903 109.377 220.606 118.675 209.135 118.675Z" stroke="white" stroke-width="1.28736" stroke-miterlimit="10" stroke-linecap="round" stroke-linejoin="round"/>
</g>
</g>
<defs>
<clipPath id="clip0_2005_286">
<rect width="232" height="120" fill="white"/>
</clipPath>
</defs>
</svg>
