<svg width="24" height="24" viewBox="0 0 24 24" fill="none" xmlns="http://www.w3.org/2000/svg">
<path d="M5 1H19C20.3256 1.00159 21.5964 1.52888 22.5338 2.46622C23.4711 3.40356 23.9984 4.67441 24 6V18C23.9984 19.3256 23.4711 20.5964 22.5338 21.5338C21.5964 22.4711 20.3256 22.9984 19 23H5C3.6744 22.9984 2.40356 22.4711 1.46622 21.5338C0.528881 20.5964 0.00158691 19.3256 0 18V6C0.00158691 4.67441 0.528881 3.40356 1.46622 2.46622C2.40356 1.52888 3.6744 1.00159 5 1ZM19 3H5C4.40121 3.00118 3.81648 3.18151 3.32105 3.5178C2.82561 3.85409 2.44215 4.33095 2.22 4.887L9.878 12.546C10.4416 13.1073 11.2046 13.4225 12 13.4225C12.7954 13.4225 13.5584 13.1073 14.122 12.546L21.78 4.887C21.5579 4.33095 21.1744 3.85409 20.679 3.5178C20.1835 3.18151 19.5988 3.00118 19 3ZM5 21H19C19.7956 21 20.5587 20.6839 21.1213 20.1213C21.6839 19.5587 22 18.7956 22 18V7.5L15.536 13.96C14.5974 14.8963 13.3257 15.422 12 15.422C10.6743 15.422 9.40263 14.8963 8.464 13.96L2 7.5V18C2 18.7956 2.31607 19.5587 2.87868 20.1213C3.44129 20.6839 4.20435 21 5 21Z" fill="#FF4900"/>
</svg>
