<svg width="28" height="28" viewBox="0 0 28 28" fill="none" xmlns="http://www.w3.org/2000/svg">
<g clip-path="url(#clip0_328_4155)">
<path d="M2.08837 1.09554C2.29554 0.759503 2.58553 0.482294 2.93056 0.290474C3.2756 0.0986537 3.66411 -0.0013509 4.05887 4.11275e-05H7.56937C8.44097 -0.00362989 9.29593 0.238523 10.0361 0.698707C10.7764 1.15889 11.3718 1.81846 11.7542 2.60171L13.9254 7.00354L13.9989 7.00004L14.0467 7.00237L16.2179 2.60171C16.6004 1.81855 17.1958 1.15906 17.936 0.698886C18.6762 0.238717 19.5311 -0.00349214 20.4027 4.11275e-05H23.9132C24.3081 -0.00110335 24.6967 0.0989971 25.0418 0.290785C25.387 0.482572 25.6773 0.759643 25.8849 1.09554C26.0942 1.43037 26.2142 1.81326 26.2334 2.20766C26.2526 2.60206 26.1703 2.9948 25.9945 3.34837L22.2239 10.9935C23.6971 12.8427 24.4991 15.137 24.4989 17.5012C24.4989 23.2902 19.7879 28.0012 13.9989 28.0012C8.20987 28.0012 3.49887 23.2902 3.49887 17.5012C3.49885 15.146 4.29526 12.8599 5.7587 11.0145L1.97754 3.34954C1.80153 2.99603 1.71918 2.60326 1.73838 2.20881C1.75758 1.81437 1.87769 1.43146 2.0872 1.09671L2.08837 1.09554ZM20.4039 2.33337C19.509 2.33337 18.7075 2.83154 18.312 3.63421L16.4979 7.31271C17.95 7.66819 19.309 8.33098 20.4832 9.25638L23.9144 2.33337H20.4039ZM14 25.6667C18.5034 25.6667 22.1667 22.0034 22.1667 17.5C22.1667 13.23 18.8709 9.72071 14.6895 9.36837H14.6849C14.4585 9.34971 14.2299 9.33338 13.9989 9.33338C9.49554 9.33338 5.8322 12.9967 5.8322 17.5C5.8322 22.0034 9.49554 25.6667 13.9989 25.6667H14ZM7.5017 9.26921C8.67321 8.34221 10.0298 7.67705 11.48 7.31854L9.66237 3.63421C9.47128 3.24263 9.17365 2.91287 8.80365 2.68277C8.43364 2.45268 8.00625 2.33158 7.57054 2.33337L4.07054 2.31587L7.5017 9.26921ZM9.1502 16.8117C9.1502 17.2329 9.44304 17.5875 9.77904 17.7742L11.5174 18.7402L10.7462 20.8437C10.6736 21.0422 10.6667 21.2588 10.7266 21.4615C10.7865 21.6642 10.9099 21.8423 11.0787 21.9695C11.2509 22.0994 11.4611 22.169 11.6768 22.1675C11.8925 22.166 12.1018 22.0936 12.2722 21.9614L14.0012 20.6244L15.7302 21.9614C15.8992 22.0916 16.1059 22.1634 16.3192 22.166C16.5326 22.1686 16.741 22.1019 16.9131 21.9758C17.0852 21.8498 17.2117 21.6712 17.2736 21.467C17.3355 21.2629 17.3294 21.0441 17.2562 20.8437L16.485 18.7402L18.2234 17.7742C18.5594 17.5875 18.8522 17.2329 18.8522 16.8117C18.8522 16.4547 18.5419 16.0604 18.0402 16.0604H15.5435L14.882 13.5229C14.8308 13.3275 14.7169 13.1542 14.5578 13.0297C14.3987 12.9052 14.2032 12.8362 14.0012 12.8334C13.7993 12.8366 13.604 12.9057 13.445 13.0302C13.286 13.1546 13.172 13.3276 13.1204 13.5229L12.4589 16.0604H9.9622C9.46054 16.0604 9.1502 16.4535 9.1502 16.8117Z" fill="#FF4900"/>
</g>
<defs>
<clipPath id="clip0_328_4155">
<rect width="28" height="28" fill="white" transform="matrix(-1 0 0 1 28 0)"/>
</clipPath>
</defs>
</svg>
