<svg width="36" height="36" viewBox="0 0 36 36" fill="none" xmlns="http://www.w3.org/2000/svg">
<path d="M18.341 19.7331C18.4111 19.7031 18.4866 19.6876 18.5629 19.6877C18.6392 19.6877 18.7147 19.7033 18.7848 19.7335C18.8549 19.7636 18.9181 19.8077 18.9706 19.863C19.0231 19.9184 19.0638 19.9839 19.0902 20.0554L20.0583 22.6818L20.7395 20.4104L19.8524 19.5228L19.8564 19.5188C19.8035 19.4677 19.7613 19.4066 19.7323 19.3389C19.7033 19.2713 19.6881 19.1986 19.6876 19.1251V18.2864C18.5928 18.6546 17.4075 18.6546 16.3126 18.2864V19.1251C16.3121 19.1986 16.2969 19.2713 16.2679 19.3389C16.2389 19.4066 16.1968 19.4677 16.1439 19.5188L16.1489 19.5239L15.2607 20.4104L15.4295 20.9802L18.341 19.7331Z" fill="black"/>
<path d="M13.4533 29.2499H19.125C19.2729 29.2499 19.4149 29.3082 19.5202 29.4121C19.6255 29.516 19.6856 29.6572 19.6875 29.8051C19.9913 29.7972 20.2898 29.7239 20.5627 29.5902C20.8001 29.4728 21.051 29.385 21.3097 29.3287L18.2396 21.0003L11.4069 23.9287L13.4533 29.2499ZM20.6539 16.5065C21.0656 16.176 21.406 15.7653 21.6543 15.2994C21.9026 14.8334 22.0537 14.3219 22.0984 13.7958L22.4511 9.56241H21.375C21.2258 9.56238 21.0828 9.50309 20.9773 9.3976L20.4041 8.82441L20.1909 9.25135C20.1442 9.34485 20.0724 9.42349 19.9834 9.47843C19.8945 9.53338 19.792 9.56246 19.6875 9.56241H17.4375C17.3251 9.5625 17.2152 9.52889 17.122 9.46592C17.0289 9.40296 16.9568 9.31352 16.9149 9.20916L16.3125 7.70166L15.7101 9.20916C15.6682 9.31352 15.5961 9.40296 15.503 9.46592C15.4098 9.52889 15.2999 9.5625 15.1875 9.56241H13.5489L13.9016 13.7958C13.9463 14.3219 14.0974 14.8334 14.3457 15.2994C14.594 15.7653 14.9344 16.176 15.3461 16.5065C16.0994 17.1091 17.0353 17.4375 18 17.4375C18.9647 17.4375 19.9006 17.1091 20.6539 16.5065ZM24.1875 13.9825C24.0042 14.0332 23.8152 14.06 23.625 14.0624H23.1958C23.0408 15.3678 22.3807 16.5605 21.357 17.3851C21.1834 17.5216 21.0016 17.6473 20.8125 17.7614V18.6777L23.3438 19.2622C24.5421 18.7681 25.5377 17.8826 26.1681 16.75C25.5945 16.5717 25.093 16.2147 24.7367 15.7312C24.3804 15.2477 24.188 14.663 24.1875 14.0624V13.9825ZM22.3222 23.0911L23.4557 22.7131L22.5231 20.2268L21.9094 20.0851C21.9435 20.1911 21.9451 20.305 21.9139 20.4119L20.7056 24.4394L21.5573 26.7507L22.9129 25.259L22.032 23.9371C21.9844 23.8652 21.954 23.7833 21.9431 23.6977C21.9322 23.6122 21.9411 23.5252 21.9692 23.4437C21.9972 23.3621 22.0437 23.2881 22.1049 23.2274C22.1661 23.1666 22.2405 23.1208 22.3222 23.0933V23.0911ZM13.4769 20.2268L12.7688 22.1225L14.3932 21.4261L14.0889 20.4136C14.0578 20.3067 14.0593 20.1928 14.0934 20.0868L13.4769 20.2268ZM22.0039 33.1874C22.2845 33.1871 22.5536 33.0755 22.7521 32.877C22.9506 32.6785 23.0622 32.4095 23.0625 32.1288V31.4335C23.0622 31.1529 22.9506 30.8838 22.7521 30.6853C22.5536 30.4868 22.2845 30.3752 22.0039 30.3749C21.6774 30.376 21.3556 30.453 21.0639 30.5999C20.6356 30.8124 20.1656 30.9277 19.6875 30.9374V32.6328C20.1656 32.6425 20.6356 32.7578 21.0639 32.9703C21.3562 33.1144 21.678 33.1888 22.0039 33.1874ZM11.25 34.8749H17.4375V34.2393L11.25 33.9704V34.8749Z" fill="black"/>
<path d="M29.1881 34.875L28.1813 25.3322C28.0609 24.1959 27.5893 23.1254 26.832 22.2698C26.0748 21.4141 25.0695 20.8158 23.9563 20.5583L23.8388 20.5312L24.7146 22.8656C24.7411 22.9365 24.7531 23.0119 24.7498 23.0875C24.7465 23.1631 24.728 23.2373 24.6954 23.3055C24.6628 23.3738 24.6168 23.4348 24.56 23.4849C24.5033 23.5349 24.4371 23.573 24.3653 23.5969L23.3769 23.9265L24.093 25.0009C24.1627 25.1053 24.1954 25.23 24.1861 25.3552C24.1767 25.4803 24.1257 25.5988 24.0413 25.6916L21.9954 27.9416L22.5017 29.313C22.9808 29.4247 23.4082 29.6949 23.7145 30.08C24.0208 30.465 24.1881 30.9422 24.1892 31.4342V32.1294C24.1884 32.7086 23.9579 33.2638 23.5482 33.6731C23.1384 34.0824 22.583 34.3124 22.0039 34.3125C21.5033 34.3129 21.0095 34.1974 20.5611 33.975C20.2889 33.8406 19.9909 33.7664 19.6875 33.7573C19.6856 33.9052 19.6255 34.0464 19.5202 34.1503C19.4149 34.2543 19.2729 34.3125 19.125 34.3125H19.1008L18.5625 34.2883V34.875H24.75V27.5625H25.875V34.875H29.1881ZM18.5625 30.375H10.125V29.25H12.2479L10.1621 23.8269C10.1099 23.6911 10.1124 23.5403 10.1691 23.4063C10.2257 23.2722 10.3321 23.1653 10.4659 23.1081L11.3338 22.7362L12.1613 20.5312L10.3106 20.9582C9.29849 21.1917 8.3954 21.7614 7.74872 22.5743C7.10205 23.3872 6.75 24.3953 6.75 25.434V30.375C6.74876 30.9874 6.98463 31.5765 7.40818 32.0188C7.83173 32.4612 8.41006 32.7223 9.02194 32.7476L18.5625 33.1628V30.375ZM12.375 12.9375H12.7018L12.5139 10.6875H12.375C12.0766 10.6875 11.7905 10.806 11.5795 11.017C11.3685 11.228 11.25 11.5141 11.25 11.8125C11.25 12.1109 11.3685 12.397 11.5795 12.608C11.7905 12.819 12.0766 12.9375 12.375 12.9375ZM12.6563 19.2622L15.1875 18.6778V17.7615C14.9984 17.6474 14.8166 17.5217 14.643 17.3852C13.6192 16.5607 12.9591 15.3679 12.8042 14.0625H12.375C12.1849 14.0601 11.9958 14.0333 11.8125 13.9826V14.0625C11.8119 14.6634 11.6191 15.2483 11.2624 15.7319C10.9056 16.2154 10.4036 16.5722 9.82969 16.7501C10.4609 17.8829 11.4573 18.7684 12.6563 19.2622ZM12.42 9.5625L12.375 9.04669C12.3685 8.96899 12.3783 8.89079 12.4036 8.81707C12.429 8.74334 12.4694 8.67568 12.5223 8.6184C12.5752 8.56112 12.6394 8.51546 12.7109 8.48432C12.7824 8.45317 12.8595 8.43723 12.9375 8.4375H14.8067L15.7899 5.97825C15.8316 5.87369 15.9037 5.78402 15.9968 5.72085C16.09 5.65769 16.1999 5.62392 16.3125 5.62392C16.4251 5.62392 16.535 5.65769 16.6282 5.72085C16.7213 5.78402 16.7934 5.87369 16.8351 5.97825L17.8183 8.4375H19.3371L19.7438 7.62356C19.7836 7.54399 19.8418 7.47503 19.9136 7.42233C19.9853 7.36964 20.0685 7.33471 20.1564 7.32044C20.2442 7.30616 20.3342 7.31294 20.419 7.34021C20.5037 7.36748 20.5807 7.41447 20.6438 7.47731L21.6079 8.4375H23.0625C23.1405 8.43723 23.2176 8.45317 23.2891 8.48432C23.3606 8.51546 23.4248 8.56112 23.4777 8.6184C23.5306 8.67568 23.571 8.74334 23.5964 8.81707C23.6217 8.89079 23.6315 8.96899 23.625 9.04669L23.58 9.5625H23.625C23.8152 9.56488 24.0042 9.59172 24.1875 9.64237V7.875C24.1875 6.23397 23.5356 4.66016 22.3752 3.49978C21.2148 2.3394 19.641 1.6875 18 1.6875C16.359 1.6875 14.7852 2.3394 13.6248 3.49978C12.4644 4.66016 11.8125 6.23397 11.8125 7.875V9.64237C11.9958 9.59172 12.1849 9.56488 12.375 9.5625H12.42ZM23.4861 10.6875L23.2982 12.9375H23.625C23.9234 12.9375 24.2095 12.819 24.4205 12.608C24.6315 12.397 24.75 12.1109 24.75 11.8125C24.75 11.5141 24.6315 11.228 24.4205 11.017C24.2095 10.806 23.9234 10.6875 23.625 10.6875H23.4861Z" fill="black"/>
</svg>
