<svg width="28" height="28" viewBox="0 0 28 28" fill="none" xmlns="http://www.w3.org/2000/svg">
<path d="M16.3333 21.0001C16.3333 22.1925 16.1012 23.3276 15.694 24.3765L24.8885 17.5001H28V15.1668H24.1115L16.3322 20.9838V21.0001H16.3333ZM3.22467 2.33346L6.66517 0.612627C8.80017 -0.453707 11.5115 -0.0535398 13.244 1.57979L13.965 2.25879L14.7817 1.51446C15.8631 0.531064 17.275 -0.00951429 18.7367 0.000126772C19.6327 0.000126772 20.531 0.21246 21.3348 0.612627L24.7753 2.33346H28V4.66679H24.2247L20.293 2.69979C19.0937 2.10013 17.4253 2.26346 16.3543 3.23879L15.6707 3.86179L18.7588 6.76913C20.0095 8.01979 20.2102 9.99496 19.2232 11.3646C18.8982 11.8181 18.47 12.1877 17.9741 12.4431C17.4781 12.6985 16.9285 12.8323 16.3707 12.8335C15.4455 12.8335 14.5577 12.4695 13.916 11.8266L12.7435 10.7043L10.5315 12.3633C9.57649 11.9756 8.56358 11.7497 7.53433 11.6948L11.0343 9.06979L9.065 7.18446L10.6785 5.49863L15.5482 10.1595C15.6686 10.2801 15.814 10.3729 15.9741 10.4313C16.1343 10.4897 16.3053 10.5123 16.4751 10.4975C16.6449 10.4827 16.8095 10.4309 16.9571 10.3457C17.1047 10.2605 17.2319 10.1439 17.3297 10.0043C17.6493 9.55979 17.5513 8.86563 17.1337 8.44679L11.6445 3.27963C11.1218 2.8 10.467 2.48849 9.76515 2.38552C9.06325 2.28254 8.34661 2.39285 7.70817 2.70213L3.77533 4.66913H9.53674e-07V2.33579H3.22467V2.33346ZM9.53674e-07 21.0001C9.53674e-07 24.8606 3.1395 28.0001 7 28.0001C10.8605 28.0001 14 24.8606 14 21.0001C14 17.1396 10.8605 14.0001 7 14.0001C3.1395 14.0001 9.53674e-07 17.1396 9.53674e-07 21.0001ZM2.33333 21.0001C2.33333 18.4265 4.42633 16.3335 7 16.3335C9.57367 16.3335 11.6667 18.4265 11.6667 21.0001C11.6667 23.5738 9.57367 25.6668 7 25.6668C4.42633 25.6668 2.33333 23.5738 2.33333 21.0001ZM7.65567 21.377L9.10467 19.9735L10.7287 21.6488L8.93783 23.3825C8.596 23.7278 8.13983 23.9168 7.6545 23.9168C7.16917 23.9168 6.713 23.7278 6.37817 23.393L3.27367 20.3456L4.90817 18.6796L7.65567 21.377Z" fill="#FF4900"/>
</svg>
