<svg width="36" height="36" viewBox="0 0 36 36" fill="none" xmlns="http://www.w3.org/2000/svg">
<g clip-path="url(#clip0_2014_187)">
<path d="M34.8194 12.3935C34.1978 11.2746 32.7869 10.8714 31.668 11.4931L27.991 13.5359L25.5673 9.82899C25.4956 9.83152 25.424 9.83447 25.3517 9.83447C22.9104 9.83447 20.8077 8.36128 19.8829 6.25782L12.2445 6.25732C11.8298 6.25733 11.4226 6.36863 11.0655 6.57962C10.7085 6.79061 10.4146 7.09356 10.2145 7.45686L7.27892 12.7872C6.66151 13.9084 7.06981 15.3179 8.19094 15.9353C8.53257 16.1241 8.91653 16.2232 9.30687 16.2232C10.1243 16.2232 10.9168 15.7899 11.339 15.0233L13.6139 10.8924H17.9909L11.3082 22.5574H3.206C1.9261 22.5574 0.888428 23.595 0.888428 24.875C0.888428 26.1549 1.92603 27.1926 3.206 27.1926H12.6308C13.0336 27.1926 13.4295 27.0876 13.7794 26.8879C14.1293 26.6883 14.4211 26.4009 14.626 26.054L16.2908 23.2367L20.4938 26.5482L17.9739 32.8174C17.4965 34.005 18.0722 35.3547 19.2598 35.832C19.5343 35.9428 19.8275 35.9997 20.1235 35.9999C21.0418 35.9999 21.9111 35.4504 22.2745 34.546L25.4418 26.6663C25.8256 25.7117 25.534 24.6183 24.7258 23.9816L20.0656 20.3098L23.2877 14.8124L25.2916 17.8773C25.7342 18.554 26.4742 18.9269 27.2331 18.9269C27.6265 18.9268 28.0133 18.8264 28.3569 18.6349L33.9191 15.5448C35.0379 14.9233 35.441 13.5124 34.8194 12.3935Z" fill="black"/>
<path d="M25.3516 7.72524C27.4849 7.72524 29.2142 5.99588 29.2142 3.86262C29.2142 1.72935 27.4849 0 25.3516 0C23.2184 0 21.489 1.72935 21.489 3.86262C21.489 5.99588 23.2184 7.72524 25.3516 7.72524Z" fill="black"/>
</g>
<defs>
<clipPath id="clip0_2014_187">
<rect width="36" height="36" fill="white"/>
</clipPath>
</defs>
</svg>
