<svg width="36" height="36" viewBox="0 0 36 36" fill="none" xmlns="http://www.w3.org/2000/svg">
<path d="M15.1875 10.125H20.8125C20.9615 10.1245 21.1043 10.0651 21.2097 9.95974C21.3151 9.85435 21.3745 9.71153 21.375 9.56248V8.43748C21.375 8.03916 21.2337 7.65375 20.9762 7.34988C20.7187 7.046 20.3617 6.84339 19.9687 6.77811V3.37498C19.9678 3.07689 19.849 2.79126 19.6382 2.58047C19.4275 2.36969 19.1418 2.25087 18.8437 2.24998H17.1562C16.8581 2.25087 16.5725 2.36969 16.3617 2.58047C16.1509 2.79126 16.0321 3.07689 16.0312 3.37498V6.77811C15.6383 6.84339 15.2813 7.046 15.0238 7.34988C14.7662 7.65375 14.6249 8.03916 14.625 8.43748V9.56248C14.6254 9.71153 14.6848 9.85435 14.7902 9.95974C14.8956 10.0651 15.0384 10.1245 15.1875 10.125ZM10.1756 7.89748C10.3185 7.57573 9.74248 6.87486 9.56248 6.49123C9.36064 6.14762 9.04428 5.88602 8.66887 5.75231C8.29346 5.6186 7.88296 5.62132 7.50935 5.75998L5.8106 2.81248C5.66104 2.55566 5.41664 2.36781 5.12998 2.28936C4.98718 2.24998 4.83794 2.23965 4.69108 2.25898C4.54422 2.2783 4.40273 2.32689 4.27498 2.40186L2.81248 3.24561C2.55493 3.3953 2.36715 3.64089 2.2902 3.92866C2.21325 4.21644 2.25339 4.52298 2.40185 4.78123L4.1006 7.72873C3.79362 7.98161 3.58618 8.33509 3.51513 8.72641C3.44407 9.11773 3.51399 9.52158 3.71248 9.86623L4.27498 10.845C4.31203 10.9091 4.36143 10.9653 4.42032 11.0103C4.47921 11.0552 4.54642 11.0881 4.61808 11.1069C4.68973 11.1257 4.7644 11.1302 4.83778 11.12C4.91116 11.1098 4.9818 11.0851 5.0456 11.0475L9.91685 8.23498C9.98068 8.1993 10.0366 8.15096 10.081 8.09293C10.1255 8.0349 10.1577 7.96839 10.1756 7.89748ZM9.6581 10.1081C9.56931 10.0353 9.46059 9.99091 9.34617 9.98088C9.23175 9.97084 9.11697 9.99558 9.01685 10.0519L7.0706 11.1769C6.97106 11.2352 6.89149 11.3223 6.84231 11.4267C6.79312 11.5311 6.77662 11.6479 6.79498 11.7619L9.43873 27.1181L14.2819 13.9556L9.6581 10.1081ZM33.1875 3.24561L31.725 2.40186C31.5972 2.32689 31.4557 2.2783 31.3089 2.25898C31.162 2.23965 31.0128 2.24998 30.87 2.28936C30.5833 2.36781 30.3389 2.55566 30.1893 2.81248L28.4906 5.75998C28.117 5.62132 27.7065 5.6186 27.3311 5.75231C26.9557 5.88602 26.6393 6.14762 26.4375 6.49123L25.875 7.46998C25.8031 7.59947 25.7847 7.75189 25.8235 7.89479C25.8624 8.03768 25.9555 8.15975 26.0831 8.23498L30.9543 11.0475C31.0182 11.0851 31.0888 11.1098 31.1622 11.12C31.2355 11.1302 31.3102 11.1257 31.3819 11.1069C31.4535 11.0881 31.5207 11.0552 31.5796 11.0103C31.6385 10.9653 31.6879 10.9091 31.725 10.845L32.2875 9.86623C32.486 9.52158 32.5559 9.11773 32.4848 8.72641C32.4138 8.33509 32.2063 7.98161 31.8993 7.72873L33.5981 4.78123C33.7466 4.52298 33.7867 4.21644 33.7098 3.92866C33.6328 3.64089 33.445 3.3953 33.1875 3.24561ZM28.9293 11.1769L26.9831 10.0519C26.883 9.99558 26.7682 9.97084 26.6538 9.98088C26.5394 9.99091 26.4306 10.0353 26.3419 10.1081L21.7181 13.9556L26.5612 27.1181L29.205 11.7619C29.2233 11.6479 29.2068 11.5311 29.1576 11.4267C29.1085 11.3223 29.0289 11.2352 28.9293 11.1769ZM19.6537 11.6156C19.613 11.5083 19.5407 11.4158 19.4462 11.3505C19.3518 11.2852 19.2398 11.2502 19.125 11.25H16.875C16.7602 11.2502 16.6481 11.2852 16.5537 11.3505C16.4593 11.4158 16.3869 11.5083 16.3462 11.6156L9.75373 29.5144C9.593 29.7727 9.5073 30.0707 9.50623 30.375C9.50623 32.5687 13.8825 33.75 18 33.75C22.2964 33.7162 27.6097 32.4731 26.2462 29.5144L19.6537 11.6156ZM18 32.625C13.5371 32.6064 9.98998 31.262 10.7662 30.015C12.6523 27.5254 23.3612 27.5332 25.2337 30.015C26.0178 31.2581 22.4567 32.6087 18 32.625Z" fill="black"/>
</svg>
