<svg width="36" height="36" viewBox="0 0 36 36" fill="none" xmlns="http://www.w3.org/2000/svg">
<path d="M3.23096 30.2258V33.7498H17.933V30.2258C17.933 30.102 17.9285 29.9788 17.9195 29.8556C17.8549 28.7573 17.5039 27.695 16.9015 26.7744C16.299 25.8538 15.4661 25.107 14.4855 24.6081C14.4726 24.6015 14.46 24.5944 14.4478 24.5867C13.5747 24.149 12.6108 23.923 11.6341 23.9269H9.53546C6.05921 23.9269 3.23096 26.7523 3.23096 30.2258ZM14.5057 19.266C14.5631 18.7161 14.5044 18.1602 14.3334 17.6344C14.1624 17.1085 13.883 16.6244 13.5131 16.2134C13.1432 15.8024 12.6912 15.4736 12.1862 15.2483C11.6813 15.023 11.1346 14.9062 10.5817 14.9055C10.5153 14.9055 10.4529 14.9055 10.3893 14.9095C9.37681 14.9576 8.4218 15.3942 7.72285 16.1283C7.02389 16.8625 6.63475 17.8378 6.63633 18.8515C6.63633 21.03 8.40652 22.8019 10.5823 22.8019C11.563 22.8025 12.5085 22.4361 13.2328 21.7748C13.9508 21.1232 14.4036 20.2302 14.5057 19.266Z" fill="black"/>
<path d="M18.3031 26.969C18.4268 27.2227 18.5348 27.4842 18.6293 27.7514L18.658 27.8291C18.748 28.0917 18.8212 28.3606 18.8808 28.634C18.8881 28.6666 18.896 28.6987 18.9027 28.7313C18.9578 29.0013 18.9967 29.2758 19.0214 29.5537C19.0231 29.5756 19.0293 29.597 19.031 29.6195C19.9266 30.8936 20.8461 32.1508 21.7889 33.3905C23.8927 30.6264 32.7695 18.6406 32.7695 13.2305C32.7695 7.1763 27.8437 2.25049 21.7889 2.25049C15.7342 2.25049 10.814 7.17574 10.814 13.2299C10.814 13.406 10.8241 13.5911 10.8443 13.7874C10.8899 13.7896 10.9338 13.7975 10.9788 13.8009C11.3108 13.8266 11.6394 13.8854 11.9598 13.9764C12.034 13.9972 12.1077 14.0191 12.1803 14.0433C12.263 14.0709 12.3434 14.1012 12.4238 14.1327C12.4947 14.1603 12.565 14.1884 12.6342 14.2194C12.713 14.2542 12.79 14.2925 12.8665 14.3313C12.934 14.3656 13.001 14.3994 13.0668 14.4365C13.1416 14.4787 13.2136 14.5242 13.2862 14.5698C13.3497 14.6097 13.4133 14.6497 13.4746 14.693C13.5449 14.7419 13.6124 14.7942 13.6805 14.8471C13.739 14.8927 13.798 14.9377 13.8548 14.9855C13.9207 15.0412 13.9825 15.0997 14.0455 15.1587C14.0995 15.2094 14.1541 15.2589 14.2058 15.3123C14.2666 15.3742 14.3228 15.4394 14.3802 15.5041C14.4286 15.5592 14.4781 15.6127 14.5242 15.6701C14.5793 15.7381 14.63 15.809 14.6812 15.8799C14.7239 15.9389 14.7683 15.9963 14.8083 16.0571C14.8572 16.1302 14.9005 16.2072 14.9455 16.2832C14.9827 16.3456 15.0215 16.4069 15.0558 16.4711C15.098 16.5504 15.1351 16.6325 15.1733 16.7146C15.2037 16.7793 15.2363 16.8423 15.2639 16.9087C15.2999 16.9947 15.3292 17.0836 15.3607 17.1719C15.3837 17.2377 15.4096 17.3013 15.4304 17.3682C15.4591 17.4622 15.481 17.5584 15.5041 17.6546C15.5198 17.7192 15.539 17.7817 15.5519 17.8469C15.5738 17.9549 15.5873 18.0657 15.602 18.176C15.6093 18.2317 15.6211 18.2862 15.6267 18.3425C15.6436 18.5101 15.6526 18.68 15.6526 18.8521C15.6526 19.022 15.6425 19.1907 15.6262 19.3578C15.6205 19.4135 15.6098 19.4681 15.6025 19.5237C15.5889 19.6348 15.5713 19.7453 15.5497 19.8551C15.5367 19.9197 15.5193 19.9833 15.5035 20.0474C15.4793 20.1459 15.4546 20.2443 15.4248 20.3411C15.4045 20.4074 15.3815 20.4721 15.3584 20.5379C15.3034 20.6967 15.2397 20.8524 15.1677 21.0042C15.1261 21.0929 15.0818 21.1803 15.035 21.2664C15.0018 21.3271 14.9692 21.3879 14.9337 21.4475C14.8815 21.5344 14.8266 21.6195 14.7689 21.7029C14.7323 21.7569 14.6963 21.812 14.6575 21.8643C14.5908 21.9535 14.521 22.0403 14.4483 22.1247C14.4123 22.1675 14.3785 22.2114 14.3408 22.253C14.3313 22.2637 14.3228 22.2761 14.3127 22.2867C14.5805 22.753 14.8555 23.2194 15.1345 23.6784C15.1542 23.6891 15.1717 23.7026 15.1913 23.7132C15.44 23.8488 15.6802 23.9962 15.9091 24.1576L15.9738 24.206C16.2067 24.3742 16.43 24.5536 16.6403 24.746L16.6775 24.782C16.8935 24.9828 17.0982 25.1943 17.2883 25.4176L17.2962 25.4272C17.488 25.6539 17.6658 25.8918 17.8289 26.1399L17.8441 26.1618C18.0027 26.4042 18.1456 26.6574 18.2755 26.9172L18.3031 26.969ZM16.9885 18.0303C15.7055 16.7472 14.999 15.0417 14.999 13.2271C14.999 11.4125 15.7055 9.70699 16.9885 8.42393C19.6368 5.77568 23.9461 5.77568 26.5949 8.42393C27.878 9.70699 28.5845 11.4125 28.5845 13.2271C28.5845 15.0417 27.878 16.7472 26.5949 18.0303C25.2708 19.3544 23.531 20.0165 21.7917 20.0165C20.0525 20.0165 18.3132 19.3544 16.9885 18.0303Z" fill="black"/>
</svg>
