<svg width="36" height="36" viewBox="0 0 36 36" fill="none" xmlns="http://www.w3.org/2000/svg">
<g clip-path="url(#clip0_2014_53)">
<path d="M34.7554 27.4149C33.6444 28.7016 31.978 29.3274 30.3538 29.1305L25.453 34.7907C24.4124 35.986 22.6054 36.1266 21.396 35.079C20.2007 34.0454 20.0671 32.2243 21.1077 31.029L26.0085 25.3688C25.5866 23.7727 25.9804 22.043 27.0843 20.7704C28.0124 19.6946 29.3554 19.0547 30.7757 19.0196C31.7952 18.9633 32.4772 20.1727 31.8022 21.0446L30.8671 22.4368C30.5999 22.8868 30.6913 23.4985 31.1202 23.8711C31.5632 24.2508 32.196 24.2157 32.5897 23.8922L33.8132 22.7813C34.5655 22.0008 35.8382 22.4719 35.9718 23.5125C36.1264 24.9399 35.6975 26.325 34.7554 27.4149ZM27.5132 9.11255H27.021C26.8804 5.54771 24.7077 2.49614 21.621 1.09692C21.6139 1.23052 21.5999 1.36411 21.5718 1.4977L20.4257 6.63755C20.3343 7.05239 19.9194 7.31958 19.5046 7.22114C19.0897 7.12974 18.8225 6.71489 18.921 6.30005L20.0671 1.16021C20.1655 0.68208 19.828 0.218018 19.3147 0.218018H16.3546C15.8624 0.218018 15.4827 0.675049 15.6022 1.16021L16.7483 6.30005C16.8397 6.71489 16.5796 7.12974 16.1647 7.22114C15.7358 7.30552 15.335 7.03833 15.2436 6.63755L14.0975 1.4977C14.0694 1.36411 14.0483 1.23052 14.0483 1.09692C10.9616 2.49614 8.78895 5.54771 8.64832 9.11255H8.15613C7.72723 9.11255 7.3827 9.45708 7.3827 9.88599C7.3827 10.3079 7.72723 10.6594 8.15613 10.6594H9.4077V14.9063C9.4077 17.1774 11.2288 19.2516 13.1272 20.9602V22.9079C13.1272 23.829 12.3468 24.518 11.4608 24.5743C11.4397 24.5743 11.6718 24.5461 8.91551 24.8415V29.7141H20.2147L24.3632 24.9329C24.3491 24.8204 24.335 24.7008 24.335 24.5883L24.2999 24.5813C24.2718 24.5743 24.2436 24.5743 24.2155 24.5743C23.3014 24.5743 22.5491 23.829 22.5491 22.9079V20.9602C24.4475 19.2516 26.2616 17.1774 26.2616 14.9063V10.6594H27.5202C27.9491 10.6594 28.2936 10.3149 28.2936 9.88599C28.2866 9.45708 27.9421 9.11255 27.5132 9.11255ZM22.8725 25.8188C19.4905 27.9141 16.1718 27.9141 12.7968 25.8118C13.8936 25.3055 14.66 24.1875 14.66 22.9008V22.2891C15.0257 22.5915 15.0468 22.6125 15.2225 22.7602C15.6796 23.1399 16.2561 23.3508 16.8468 23.3508H18.8014C19.3921 23.3508 19.9686 23.1399 20.4257 22.7602C21.2061 22.1133 20.9319 22.3383 20.9952 22.2891V22.9079C21.0022 24.1946 21.7686 25.3055 22.8725 25.8188ZM24.7147 14.8993C24.7147 17.3532 21.3749 19.9618 19.4483 21.5649C19.2725 21.7125 19.0405 21.7969 18.8085 21.7969H16.8538C16.6218 21.7969 16.3968 21.7125 16.2139 21.5649C14.2663 19.9477 10.9475 17.3391 10.9475 14.8993V10.6524H24.7147V14.8993ZM34.8889 35.7821H32.1679L30.9585 32.3157C30.8389 31.9711 30.6702 31.6547 30.4663 31.3735L31.0429 30.7125C32.1679 30.6985 33.2647 30.3891 34.221 29.8336C34.3827 30.1993 34.5093 30.579 34.6147 30.9727L35.6343 34.8118C35.7679 35.2829 35.4022 35.7821 34.8889 35.7821ZM19.9264 35.7821H5.16785L6.15926 32.836C6.49676 31.9079 7.37566 31.254 8.55691 31.254H19.1882C18.935 31.8727 18.8296 32.5407 18.8788 33.2297C18.9491 34.179 19.3147 35.0649 19.9264 35.7821ZM30.5296 35.7821H26.6413L29.3975 32.5969C29.5452 32.9204 29.4186 32.6321 30.5296 35.7821ZM7.36863 29.8407V25.0172C4.31004 25.636 1.8491 27.9282 1.04754 30.9586L0.0209771 34.8047C-0.105585 35.318 0.267071 35.7821 0.76629 35.7821H3.52254L4.69676 32.3157C5.13973 31.0852 6.15223 30.1782 7.36863 29.8407Z" fill="black"/>
</g>
<defs>
<clipPath id="clip0_2014_53">
<rect width="36" height="36" fill="white"/>
</clipPath>
</defs>
</svg>
