<svg width="36" height="36" viewBox="0 0 36 36" fill="none" xmlns="http://www.w3.org/2000/svg">
<path d="M34.875 26.25H24.75V5.625C24.75 5.32663 24.6315 5.04048 24.4205 4.8295C24.2095 4.61853 23.9234 4.5 23.625 4.5C23.3266 4.5 23.0405 4.61853 22.8295 4.8295C22.6185 5.04048 22.5 5.32663 22.5 5.625V18.75H20.958L17.4285 8.7525C17.144 7.94809 16.6173 7.25156 15.9208 6.75868C15.2243 6.26579 14.3922 6.00075 13.539 6H8.625C8.32663 6 8.04048 6.11853 7.82951 6.3295C7.61853 6.54048 7.5 6.82663 7.5 7.125V15H4.125C3.03123 15.0008 1.98248 15.4356 1.20906 16.2091C0.435647 16.9825 0.000794606 18.0312 0 19.125L0 25.875C0 27.3225 1.1775 28.5 2.625 28.5H3.0765C3.4245 30.21 4.9395 31.5 6.75 31.5C8.5605 31.5 10.0755 30.21 10.4235 28.5H13.575C13.923 30.21 15.438 31.5 17.2485 31.5C19.059 31.5 20.574 30.21 20.922 28.5H34.8735C35.1719 28.5002 35.4581 28.3819 35.6692 28.171C35.8803 27.9602 35.9991 27.6741 35.9993 27.3757C35.9995 27.0774 35.8811 26.7912 35.6703 26.58C35.4594 26.3689 35.1734 26.2502 34.875 26.25ZM9.75 8.25H13.539C14.3325 8.25 15.0435 8.7525 15.3075 9.501L18.5715 18.75H11.625C10.5915 18.75 9.75 17.9085 9.75 16.875V16.125V8.25ZM6.75 29.25C6.36378 29.2327 5.99911 29.0671 5.73191 28.7877C5.46472 28.5083 5.3156 28.1366 5.3156 27.75C5.3156 27.3634 5.46472 26.9917 5.73191 26.7123C5.99911 26.4329 6.36378 26.2673 6.75 26.25C7.13622 26.2673 7.50089 26.4329 7.76809 26.7123C8.03528 26.9917 8.1844 27.3634 8.1844 27.75C8.1844 28.1366 8.03528 28.5083 7.76809 28.7877C7.50089 29.0671 7.13622 29.2327 6.75 29.25ZM17.25 29.25C16.8638 29.2327 16.4991 29.0671 16.2319 28.7877C15.9647 28.5083 15.8156 28.1366 15.8156 27.75C15.8156 27.3634 15.9647 26.9917 16.2319 26.7123C16.4991 26.4329 16.8638 26.2673 17.25 26.25C17.6362 26.2673 18.0009 26.4329 18.2681 26.7123C18.5353 26.9917 18.6844 27.3634 18.6844 27.75C18.6844 28.1366 18.5353 28.5083 18.2681 28.7877C18.0009 29.0671 17.6362 29.2327 17.25 29.25Z" fill="black"/>
</svg>
