<svg width="36" height="36" viewBox="0 0 36 36" fill="none" xmlns="http://www.w3.org/2000/svg">
<path fill-rule="evenodd" clip-rule="evenodd" d="M26.3672 30.0938H25.0312C25.1719 29.6016 25.2422 29.1797 25.2422 28.6875C25.2422 27.1406 24.4688 25.7344 23.2734 24.8906H26.3672C27.7734 24.8906 28.9688 26.0859 28.9688 27.4922C28.8984 28.8984 27.7734 30.0938 26.3672 30.0938ZM16.1719 30.0938H12.7266C12.8672 29.6016 12.9375 29.1797 12.9375 28.6875C12.9375 27.1406 12.1641 25.7344 10.9688 24.8906H17.9297C16.7344 25.7344 15.9609 27.1406 15.9609 28.6875C15.9609 29.1797 16.0312 29.6016 16.1719 30.0938ZM3.9375 30.0938H2.60156C1.125 30.0938 0 28.8984 0 27.4922C0 26.0859 1.125 24.8906 2.60156 24.8906H5.625C4.5 25.7344 3.72656 27.1406 3.72656 28.6875C3.72656 29.1797 3.79688 29.6016 3.9375 30.0938Z" fill="black"/>
<path fill-rule="evenodd" clip-rule="evenodd" d="M8.29688 32.4141C6.25781 32.4141 4.57031 30.7266 4.57031 28.6875C4.57031 26.5781 6.25781 24.8906 8.29688 24.8906C10.4062 24.8906 12.0938 26.5781 12.0938 28.6875C12.0938 30.7266 10.4062 32.4141 8.29688 32.4141ZM8.29688 30.6562C7.24219 30.6562 6.32812 29.8125 6.32812 28.6875C6.32812 27.5625 7.24219 26.7188 8.29688 26.7188C9.42188 26.7188 10.3359 27.5625 10.3359 28.6875C10.3359 29.8125 9.42188 30.6562 8.29688 30.6562ZM8.29688 27.5625C7.66406 27.5625 7.17188 28.0547 7.17188 28.6875C7.17188 29.3203 7.66406 29.8125 8.29688 29.8125C8.92969 29.8125 9.49219 29.3203 9.49219 28.6875C9.49219 28.0547 8.92969 27.5625 8.29688 27.5625ZM20.6016 32.4141C18.4922 32.4141 16.8047 30.7266 16.8047 28.6875C16.8047 26.5781 18.4922 24.8906 20.6016 24.8906C22.6406 24.8906 24.3984 26.5781 24.3984 28.6875C24.3984 30.7266 22.6406 32.4141 20.6016 32.4141ZM20.6016 30.6562C19.4766 30.6562 18.6328 29.8125 18.6328 28.6875C18.6328 27.5625 19.4766 26.7188 20.6016 26.7188C21.7266 26.7188 22.5703 27.5625 22.5703 28.6875C22.5703 29.8125 21.7266 30.6562 20.6016 30.6562ZM20.6016 27.5625C19.9688 27.5625 19.4766 28.0547 19.4766 28.6875C19.4766 29.3203 19.9688 29.8125 20.6016 29.8125C21.2344 29.8125 21.7266 29.3203 21.7266 28.6875C21.7266 28.0547 21.2344 27.5625 20.6016 27.5625ZM19.5469 24.1875H8.29688V16.1719H10.9688C11.1094 16.1719 11.1797 16.2422 11.25 16.3125L19.8281 23.4141C19.9688 23.5547 20.0391 23.6953 19.9688 23.9062C19.8984 24.0469 19.7578 24.1875 19.5469 24.1875ZM7.45312 24.1875H5.0625C3.86719 24.1875 2.95312 23.2031 2.95312 22.0781V18.2812C2.95312 17.1562 3.86719 16.1719 5.0625 16.1719H7.45312V24.1875ZM12.8672 16.5234L19.6875 9.70312C19.7578 9.63281 19.8281 9.5625 19.9688 9.5625C20.1094 9.5625 20.1797 9.63281 20.25 9.70312L22.5 11.8828C22.6406 12.0938 22.6406 12.3047 22.5 12.5156L15.8906 19.0547L12.8672 16.5234ZM20.7422 9L22.5 7.24219V10.7578L20.8828 9.07031C20.8125 9.07031 20.8125 9 20.7422 9ZM24.9609 10.8984H23.7656C23.4844 10.8984 23.3438 10.7578 23.3438 10.4766V5.76562C23.3438 5.55469 23.4844 5.34375 23.7656 5.34375H24.9609V10.8984ZM35.5781 12.7266H26.2266C26.0156 12.7266 25.8047 12.5156 25.8047 12.3047V3.9375C25.8047 3.72656 26.0156 3.51562 26.2266 3.51562H35.5781C35.7891 3.51562 36 3.72656 36 3.9375V12.3047C36 12.5156 35.7891 12.7266 35.5781 12.7266ZM29.8828 11.1094H28.5469C28.3359 11.1094 28.125 10.8984 28.125 10.6875V5.625C28.125 5.41406 28.3359 5.20312 28.5469 5.20312H29.8828C30.0938 5.20312 30.3047 5.41406 30.3047 5.625V10.6875C30.3047 10.8984 30.0938 11.1094 29.8828 11.1094ZM28.9688 10.2656H29.4609V6.04688H28.9688V10.2656ZM33.2578 11.1094H31.9219C31.7109 11.1094 31.5 10.8984 31.5 10.6875V5.625C31.5 5.41406 31.7109 5.20312 31.9219 5.20312H33.2578C33.4688 5.20312 33.6797 5.41406 33.6797 5.625V10.6875C33.6797 10.8984 33.4688 11.1094 33.2578 11.1094ZM32.3438 10.2656H32.8359V6.04688H32.3438V10.2656Z" fill="black"/>
</svg>
